<?xml version="1.0" encoding="UTF-8"?> <svg xmlns="http://www.w3.org/2000/svg" width="1920" height="969" viewBox="0 0 1920 969" fill="none"><mask id="mask0_1_1471" style="mask-type:alpha" maskUnits="userSpaceOnUse" x="0" y="0" width="1921" height="969"><path d="M1920 968.265H1436.5H563.5H0V36.5145C0 36.5145 502 -26.4839 968.5 13.0168C1435 52.5175 1920 36.5145 1920 36.5145V968.265Z" fill="#C4C4C4"></path></mask><g mask="url(#mask0_1_1471)"><g opacity="0.2"><path d="M1930 1685.01L1930 -997.985L-63.9999 -997.985L-64 1685.01L1930 1685.01Z" fill="url(#paint0_linear_1_1471)"></path><path d="M1597.27 556.549C1575.14 406.764 1660.16 238.215 1455.95 211.268C1251.74 184.321 1433.57 -96.4829 1433.57 -96.4829L1995 -5.50884L1995 667.302C1842.37 669.516 1612.18 656.155 1597.27 556.549Z" fill="url(#paint1_linear_1_1471)"></path><path d="M2480.1 575.765L1332.16 1294.18L1017.56 791.483C1049.85 789.429 1083.37 785.409 1117.89 779.453C1315.76 744.857 1198.74 482.068 1559.9 304.408C1921.05 126.747 1753.7 424.745 1744.7 559.166C1735.71 693.587 1947.31 709.634 2308.92 525.902C2505.61 426.03 2513.72 493.575 2480.1 575.765Z" fill="url(#paint2_linear_1_1471)"></path><path d="M-647.175 274.637C-870.232 283.894 -881.483 379.377 -1128.09 389.267C-1306.4 396.426 -1490.47 357.641 -1623 321.587L-1623 -503.486L2456 -503.485L2456 180.62C2285.93 158.051 2009.89 129.299 1698 139.448C898.264 165.325 615.943 422.418 103.631 406.834C-253.129 395.995 -377.152 263.452 -647.175 274.637Z" fill="white"></path><path d="M-647.175 274.637C-870.232 283.894 -881.483 379.377 -1128.09 389.267C-1306.4 396.426 -1490.47 357.641 -1623 321.587L-1623 -503.486L2456 -503.485L2456 180.62C2285.93 158.051 2009.89 129.299 1698 139.448C898.264 165.325 615.943 422.418 103.631 406.834C-253.129 395.995 -377.152 263.452 -647.175 274.637Z" fill="url(#paint3_linear_1_1471)"></path></g></g><defs><linearGradient id="paint0_linear_1_1471" x1="2123" y1="842.517" x2="-931.328" y2="91.2382" gradientUnits="userSpaceOnUse"><stop stop-color="#3176FF" stop-opacity="0.1"></stop><stop offset="1" stop-color="#3176FF"></stop></linearGradient><linearGradient id="paint1_linear_1_1471" x1="1995" y1="285.517" x2="1359" y2="285.517" gradientUnits="userSpaceOnUse"><stop stop-color="#3176FF"></stop><stop offset="1" stop-color="white" stop-opacity="0"></stop></linearGradient><linearGradient id="paint2_linear_1_1471" x1="2333.27" y1="241.638" x2="1140.58" y2="988.058" gradientUnits="userSpaceOnUse"><stop stop-color="#3176FF"></stop><stop offset="1" stop-color="white" stop-opacity="0"></stop></linearGradient><linearGradient id="paint3_linear_1_1471" x1="2456" y1="-47.9854" x2="-788.5" y2="98.517" gradientUnits="userSpaceOnUse"><stop stop-color="#3176FF"></stop><stop offset="1" stop-color="#3176FF" stop-opacity="0"></stop></linearGradient></defs></svg> 