<?xml version="1.0" encoding="UTF-8"?> <svg xmlns="http://www.w3.org/2000/svg" width="594" height="545" viewBox="0 0 594 545" fill="none"><g clip-path="url(#clip0_6_351)"><path d="M459.214 47.2599C531.933 20.7648 560.665 145.693 563.857 227.982C561.187 229.769 573.741 223.946 582.49 214.149C593.755 201.548 593.97 184.45 594.001 175.392C594.216 99.5109 510.845 6.59291 459.214 47.2599Z" fill="#ABCFFA"></path><path d="M511.766 52.4049C552.561 76.0349 585.528 133.369 585.375 180.414C585.252 227.458 552.07 246.467 511.274 222.806C470.449 199.145 437.512 141.842 437.635 94.7972C437.788 47.7528 470.971 28.7748 511.766 52.4049Z" fill="#D6F0FF"></path><path d="M511.735 68.1788C544.979 87.434 571.868 134.17 571.746 172.527C571.623 210.883 544.61 226.349 511.336 207.094C478.061 187.808 451.202 141.102 451.325 102.746C451.417 64.3894 478.46 48.8928 511.735 68.1788Z" fill="white"></path><path d="M478.306 107.953C483.463 110.941 486.84 116.394 486.84 121.755C486.809 127.731 483.801 128.07 476.219 130.412L487.055 136.697L487.024 142.15L468.637 131.49V126.499C479.258 122.617 481.253 122.463 481.253 119.074C481.253 116.64 479.872 114.545 477.938 113.406C476.035 112.296 474.715 112.759 472.842 114.299L469.036 108.507C471.492 106.104 473.886 105.395 478.306 107.953Z" fill="#8FD6FF"></path><path d="M531.656 135.249L515.817 164.055L511.243 161.405L527.082 132.599L531.656 135.249Z" fill="#8FD6FF"></path><path d="M507.897 142.889L511.242 144.83V149.944L507.897 148.003L507.866 154.196L502.648 151.177L502.678 144.984L490.523 137.929L489.663 132.938L503.354 122.617L507.958 125.298L507.897 142.889ZM502.678 139.87L502.709 130.936L496.079 136.019L502.678 139.87Z" fill="#8FD6FF"></path><path d="M551.118 150.53L551.087 155.305L539.883 172.742L533.713 169.169L544.886 152.409L533.191 145.631L533.222 140.178L551.118 150.53Z" fill="#8FD6FF"></path><path d="M307.115 372.35C306.685 371.61 306.931 370.655 307.667 370.224C400.155 316.433 394.936 318.959 396.164 319.698L453.32 353.495L509.74 320.469C509.74 213.902 509.034 219.263 511.305 219.263C513.577 219.263 512.871 213.902 512.871 321.362C512.871 322.656 516.677 320.037 454.118 356.638C452.89 357.346 456.574 359.01 395.397 322.81L309.263 372.904C308.496 373.336 307.545 373.089 307.115 372.35Z" fill="#D6F0FF"></path><path d="M441.011 404.175C450.987 409.967 451.048 419.333 441.134 425.125L326.852 491.794C316.937 497.586 300.791 497.586 290.815 491.794L27.9643 339.477C17.9881 333.685 17.9267 324.32 27.8415 318.528L142.154 251.858C152.069 246.066 168.215 246.066 178.222 251.858L441.011 404.175Z" fill="#D6F0FF"></path><path fill-rule="evenodd" clip-rule="evenodd" d="M35.4841 164.424C35.4841 164.424 45.4297 314.985 45.9515 340.833C47.1793 341.511 48.4072 342.188 49.6657 342.866L49.8192 173.081L35.4841 164.424Z" fill="#7CB4F7"></path><path fill-rule="evenodd" clip-rule="evenodd" d="M63.8478 164.424C63.8478 164.424 53.9022 314.985 53.3804 340.833C52.1526 341.511 50.9247 342.188 49.6662 342.866L49.5127 173.081L63.8478 164.424Z" fill="#4B6CCC"></path><path d="M63.8473 164.424L49.5736 172.588L35.4841 164.424L49.4815 156.291L63.8473 164.424Z" fill="white"></path><path d="M187.123 92.7947L172.849 100.959L158.79 92.7947L172.757 84.6305L187.123 92.7947Z" fill="white"></path><path fill-rule="evenodd" clip-rule="evenodd" d="M158.575 92.8256C158.575 92.8256 168.52 227.982 169.042 253.83C170.27 254.508 171.498 255.186 172.757 255.863L172.879 101.483L158.575 92.8256Z" fill="#7CB4F7"></path><path fill-rule="evenodd" clip-rule="evenodd" d="M186.938 92.8256C186.938 92.8256 176.993 227.982 176.471 253.83C175.243 254.508 174.015 255.186 172.757 255.863L172.634 101.483L186.938 92.8256Z" fill="#4B6CCC"></path><path fill-rule="evenodd" clip-rule="evenodd" d="M307.297 348.843L38.6145 193.168V179.952L307.727 333.87L307.297 348.843Z" fill="#7CB4F7"></path><path fill-rule="evenodd" clip-rule="evenodd" d="M293.362 314.307C293.362 314.307 303.307 464.867 303.829 490.715C305.057 491.393 306.285 492.071 307.543 492.749L307.666 322.964L293.362 314.307Z" fill="#7CB4F7"></path><path fill-rule="evenodd" clip-rule="evenodd" d="M321.725 314.307C321.725 314.307 311.78 464.867 311.258 490.715C310.03 491.393 308.802 492.071 307.543 492.749L307.421 322.964L321.725 314.307Z" fill="#4B6CCC"></path><path d="M321.725 314.307L307.451 322.471L293.362 314.307L307.359 306.143L321.725 314.307Z" fill="white"></path><path d="M445 242.677L430.727 250.842L416.668 242.677L430.634 234.513L445 242.677Z" fill="white"></path><path fill-rule="evenodd" clip-rule="evenodd" d="M416.453 242.708C416.453 242.708 426.398 393.269 426.92 419.117C428.148 419.795 429.376 420.472 430.634 421.15L430.788 251.365L416.453 242.708Z" fill="#7CB4F7"></path><path fill-rule="evenodd" clip-rule="evenodd" d="M444.816 242.708C444.816 242.708 434.87 393.269 434.348 419.117C433.12 419.795 431.893 420.472 430.634 421.15L430.511 251.365L444.816 242.708Z" fill="#4B6CCC"></path><path fill-rule="evenodd" clip-rule="evenodd" d="M431.956 277.029L307.299 349.244V338.029L431.956 265.784V277.029Z" fill="#4B6CCC"></path><path d="M447.396 233.312C457.372 239.104 457.434 248.469 447.519 254.261L333.237 320.931C323.322 326.723 307.176 326.723 297.2 320.931L34.3493 168.645C24.3731 162.853 24.3117 153.487 34.2265 147.695L148.539 81.026C158.454 75.234 174.6 75.234 184.607 81.026L447.396 233.312Z" fill="#E0EBFF"></path><path d="M447.518 254.292C322.616 327.154 329.829 324.782 316.814 325.244C300.545 325.829 315.126 331.344 34.3489 168.645C30.4198 166.365 26.7977 162.637 26.8284 158.109C26.7977 166.581 26.7363 166.981 26.9511 168.275C27.6572 172.188 30.9416 175.3 34.3489 177.271C313.653 339.139 299.133 331.775 307.943 333.285C316.323 334.702 326.177 333.655 333.206 329.557L447.488 262.888C456.297 257.743 454.885 252.69 454.916 243.879C454.916 247.638 452.43 251.396 447.518 254.292Z" fill="#ABCFFA"></path><path d="M460.595 477.068C479.596 488.097 479.719 505.935 460.81 516.964L457.341 518.998C438.463 530.027 407.736 530.027 388.705 518.998C369.704 507.968 369.581 490.13 388.49 479.101L391.958 477.068C410.837 466.038 441.563 466.038 460.595 477.068Z" fill="#D6F0FF"></path><path d="M457.679 418.07C425.326 399.338 366.512 414.434 375.936 444.226C376.059 444.688 389.411 491.64 389.503 491.979C391.867 501.93 393.218 506.12 400.892 510.587C419.708 521.493 451.602 515.054 455.07 499.989C455.224 499.527 471.124 443.733 471.216 443.24C474.01 434.398 469.467 424.909 457.679 418.07Z" fill="#7CB4F7"></path><path d="M457.679 418.069C476.742 429.099 476.834 446.999 457.894 458.059C438.955 469.088 408.197 469.088 389.135 458.059C370.103 447.029 369.981 429.13 388.92 418.1C407.829 407.04 438.617 407.04 457.679 418.069Z" fill="#E0EBFF"></path><path d="M454.426 453.777C428.181 467.856 382.874 458.922 379.773 439.081C376.427 417.423 425.48 405.315 454.211 420.657C471.37 429.808 471.462 444.657 454.426 453.777Z" fill="#0D2458"></path><path d="M467.011 439.266C466.182 444.565 462.007 449.74 454.456 453.776C428.211 467.856 382.904 458.921 379.803 439.081C382.873 419.456 427.781 410.429 454.241 424.539C461.915 428.668 466.182 433.905 467.011 439.266Z" fill="#4B6CCC"></path><path d="M408.965 442.192C409.302 444.287 410.96 446.321 413.937 447.923C424.313 453.499 442.239 449.956 443.436 442.131C443.099 440.036 441.441 438.002 438.464 436.4C428.027 430.762 410.162 434.429 408.965 442.192Z" fill="#0D2458"></path><path d="M424.957 437.725C423.821 408.057 408.166 381.192 382.504 365.88C421.55 361.967 447.181 405.192 424.957 437.725Z" fill="#2ED47A"></path><path d="M427.29 442.87C405.404 411.692 369.858 393.762 331.58 395.302C370.871 363.662 428.579 392.252 427.29 442.87Z" fill="#2ED47A"></path><path d="M425.848 444.257C410.684 426.326 387.846 417.268 364.395 420.319C386.803 398.691 423.853 413.079 425.848 444.257Z" fill="#2ED47A"></path><path d="M503.877 468.996C485.521 443.918 453.75 437.386 422.778 444.349C460.688 410.645 509.341 425.833 503.877 468.996Z" fill="#2ED47A"></path><path d="M426.462 443.271C398.405 440.529 376.949 462.526 365.069 488.467C364.394 437.664 401.444 410.768 426.462 443.271Z" fill="#2ED47A"></path><path d="M424.466 444.75C449.913 416.437 487.331 402.881 525.18 409.012C489.91 372.904 429.224 394.347 424.466 444.75Z" fill="#2ED47A"></path><path d="M412.127 441.207C412.372 442.747 413.569 444.257 415.78 445.427C423.392 449.525 436.53 446.937 437.42 441.176C437.175 439.635 435.978 438.126 433.767 436.955C426.124 432.827 413.017 435.507 412.127 441.207Z" fill="#58D9EF"></path><path d="M429.9 435.692C432.11 432.426 434.474 429.315 437.113 426.449C439.692 423.523 442.516 420.811 445.494 418.347C448.502 415.882 451.602 413.571 454.948 411.6C456.575 410.552 458.324 409.69 460.013 408.765L462.653 407.533L463.973 406.917L465.323 406.393C468.884 404.853 472.598 403.744 476.343 402.819C480.088 401.864 483.956 401.341 487.793 401.002C491.66 400.663 495.559 400.663 499.427 400.94C503.325 401.156 507.193 401.741 511.03 402.542C507.285 401.341 503.417 400.57 499.519 400.047C495.62 399.584 491.66 399.43 487.701 399.584C479.781 399.893 471.954 401.679 464.617 404.668L463.236 405.222L461.885 405.869L459.215 407.163C457.496 408.149 455.715 409.012 454.058 410.121C450.681 412.216 447.519 414.619 444.603 417.268C441.656 419.918 438.925 422.783 436.469 425.864C433.982 428.976 431.742 432.211 429.9 435.692Z" fill="#D6F0FF"></path><path d="M427.29 419.795C427.504 417.268 427.535 414.711 427.412 412.123C427.259 409.566 426.952 407.009 426.399 404.483C425.356 399.43 423.36 394.532 420.444 390.219C417.497 385.936 413.814 382.301 409.946 378.974C408.012 377.31 405.986 375.739 403.93 374.26C402.886 373.521 401.842 372.812 400.768 372.103L399.172 371.087L398.343 370.594L397.913 370.347L397.699 370.224L397.576 370.162C397.484 370.132 397.606 370.224 397.606 370.224C397.514 370.132 397.606 370.193 397.668 370.255L397.852 370.409L398.22 370.686L398.957 371.272L400.43 372.473C401.413 373.274 402.364 374.106 403.316 374.938C405.219 376.601 407.092 378.296 408.933 380.021C412.555 383.502 416.085 387.138 418.879 391.235C421.672 395.333 423.637 399.954 424.957 404.791C426.307 409.69 426.983 414.711 427.29 419.795Z" fill="#D6F0FF"></path><path d="M424.527 434.552C421.581 426.696 417.099 419.425 411.635 412.986C406.233 406.485 399.51 401.094 392.02 397.12C384.438 393.269 376.365 390.773 368.047 389.356C363.903 388.678 359.667 388.308 355.461 388.493C351.287 388.771 347.02 389.325 343.244 391.235C347.143 389.726 351.348 389.387 355.492 389.387C359.636 389.387 363.749 389.911 367.801 390.742C371.853 391.543 375.843 392.714 379.772 393.977C381.706 394.717 383.702 395.302 385.605 396.134L388.429 397.366L389.841 397.982L391.191 398.722L393.893 400.201C394.814 400.663 395.642 401.31 396.502 401.833C397.361 402.419 398.252 402.942 399.08 403.559L401.536 405.438C401.935 405.746 402.365 406.054 402.764 406.393L403.93 407.41L406.263 409.443L408.443 411.63L409.548 412.709L410.591 413.849C413.415 416.868 415.932 420.195 418.265 423.646C420.629 427.158 422.747 430.762 424.527 434.552Z" fill="#D6F0FF"></path><path d="M413.292 437.787C409.824 437.171 406.202 437.232 402.672 437.818C399.142 438.403 395.704 439.574 392.511 441.237C389.35 442.932 386.403 445.088 383.947 447.676C381.461 450.264 379.404 453.222 377.931 456.457C380.049 453.622 382.351 451.004 384.929 448.724C387.508 446.444 390.332 444.472 393.371 442.87C399.449 439.635 406.263 438.033 413.292 437.787Z" fill="#D6F0FF"></path><path d="M437.236 436.924C439.814 436 442.454 435.353 445.125 434.829C447.795 434.305 450.466 433.905 453.167 433.628C458.539 433.104 463.972 433.104 469.252 433.966C474.532 434.798 479.658 436.616 484.17 439.45C488.713 442.285 492.704 446.043 496.019 450.418C493.348 445.643 489.603 441.36 484.999 438.187C482.697 436.616 480.21 435.291 477.601 434.275C474.992 433.289 472.291 432.58 469.528 432.149C464.034 431.255 458.416 431.379 452.983 432.21C447.55 433.104 442.147 434.49 437.236 436.924Z" fill="#D6F0FF"></path><path d="M194.183 93.3493C203.638 98.8331 203.699 107.706 194.306 113.159L158.177 134.232C148.784 139.716 133.528 139.716 124.073 134.232L113.729 128.255C104.274 122.771 104.244 113.898 113.637 108.445L149.766 87.3724C159.159 81.8885 174.415 81.8885 183.839 87.3724L194.183 93.3493Z" fill="#D6F0FF"></path><path d="M143.535 137.375L108.174 116.733V110.849L143.535 131.49C143.535 136.05 143.535 134.756 143.535 137.375Z" fill="#315EA2"></path><path d="M189.671 104.748V110.633C165.759 124.497 176.134 118.458 143.535 137.374C143.535 132.568 143.504 135.742 143.504 131.49C143.719 131.367 189.456 104.872 189.671 104.748Z" fill="#315EA2"></path><path d="M108.174 110.849L143.535 131.49L189.672 104.748L154.279 84.1377L108.174 110.849Z" fill="#777878"></path><path d="M189.672 104.749V108.199C189.672 108.199 172.912 118.15 143.842 135.464C143.382 135.187 108.634 115.593 108.174 115.316V110.849C110.752 112.327 105.963 109.555 143.535 131.49C143.72 131.367 189.457 104.872 189.672 104.749Z" fill="#315EA2"></path><path d="M172.821 70.089L124.321 98.3711L105.351 87.3725C129.907 73.0466 133.744 70.8284 153.85 59.0905L172.821 70.089Z" fill="#7CB4F7"></path><path d="M147.003 85.1543L124.319 98.3711L105.318 87.3725L113.698 82.5048L147.003 85.1543Z" fill="#ABCFFA"></path><path d="M192.127 96.9847C168 111.064 180.156 103.978 143.627 125.267C123.153 96.7074 128.985 104.841 124.319 98.3711C124.78 98.0938 135.554 91.8397 147.004 85.1543C157.502 79.0234 168.583 72.5845 172.819 70.089C177.638 76.8052 173.832 71.5062 192.127 96.9847Z" fill="#4B6CCC"></path><path d="M192.127 96.9847C188.167 99.2953 186.264 100.404 177.73 105.395L146.973 85.1543C157.471 79.0234 168.552 72.5845 172.788 70.089C177.638 76.8052 173.832 71.5062 192.127 96.9847Z" fill="#315EA2"></path><path d="M192.127 96.9849L192.096 104.933C181.997 110.818 200.783 99.85 143.597 133.216C143.597 130.967 143.597 132.538 143.627 125.267C184.914 101.206 186.418 100.312 192.127 96.9849Z" fill="#1B305A"></path><path d="M105.318 87.3726L105.257 111.003L143.596 133.215L143.627 125.267L124.319 98.3711L105.318 87.3726Z" fill="#7CB4F7"></path><path d="M185.957 96.0914V97.9399C185.558 98.1556 177.117 102.931 176.748 103.147C175.183 102.253 172.727 100.774 171.162 99.8808C166.373 92.5793 161.554 85.2469 156.765 77.9145C152.161 75.265 147.587 72.5846 142.983 69.9351C143.443 68.7028 144.364 66.2689 144.364 66.2689L151.271 62.3254C151.271 62.3254 155.384 70.3664 159.221 72.5538C163.887 76.6513 176.319 87.6191 185.957 96.0914Z" fill="#1B305A"></path><path d="M185.958 89.7449L176.994 94.9823C171.53 87.3727 160.449 71.9685 160.326 71.8144L169.32 66.577C175.644 75.419 177.946 78.5923 185.958 89.7449Z" fill="#4B6CCC"></path><path d="M176.994 101.853L185.957 96.6153V89.745L176.994 94.9824V101.853Z" fill="#1B305A"></path><path d="M160.357 71.7836C156.551 69.627 152.714 67.4396 148.907 65.3138C147.771 65.3755 146.636 65.4371 145.5 65.5295C145.04 66.731 144.579 67.9634 144.119 69.1957C148.723 71.8452 153.327 74.5255 157.901 77.1751C162.69 84.4766 167.478 91.809 172.298 99.1106C173.863 100.004 175.429 100.928 176.994 101.822L177.025 94.9515L160.357 71.7836Z" fill="#7CB4F7"></path><path d="M113.422 88.3584C113.821 88.6049 114.343 88.6049 114.742 88.3584L142.461 72.2764C143.32 71.7835 143.351 70.4896 142.461 69.9966C142.061 69.7502 141.54 69.7502 141.141 69.9966L113.422 86.0786C112.532 86.6023 112.532 87.8655 113.422 88.3584Z" fill="#315EA2"></path><path d="M140.988 72.3997L115.264 87.311C115.234 75.727 113.146 63.8658 106.884 54.192C109.892 52.4051 124.166 43.902 132.086 39.1575C138.962 48.1227 141.08 61.0006 140.988 72.3997Z" fill="#E0EBFF"></path><path d="M106.884 54.192C113.116 63.7734 115.234 75.8195 115.264 87.3418L141.018 72.4306C141.049 63.8042 115.264 49.1703 106.884 54.192Z" fill="white"></path><path d="M116.431 86.633L115.264 87.3108C115.234 75.7885 113.146 63.7732 106.884 54.161C107.253 53.9453 107.652 53.7605 108.081 53.6064C114.313 63.1878 116.4 75.1723 116.431 86.633Z" fill="#E0EBFF"></path><path d="M140.557 98.4636L155.169 89.9605C156.703 89.0671 157.164 87.0337 156.151 85.5549C155.23 84.2302 153.48 83.8296 152.099 84.6307L137.488 93.1338C135.953 94.0272 135.492 96.0606 136.505 97.5394C137.396 98.8641 139.176 99.2646 140.557 98.4636Z" fill="#315EA2"></path><path d="M159.437 95.5368L159.805 95.3211C160.88 94.6741 161.217 93.257 160.511 92.2095C159.867 91.2544 158.608 90.9463 157.595 91.5317L157.227 91.7473C156.153 92.3943 155.815 93.8115 156.521 94.859C157.166 95.814 158.424 96.1221 159.437 95.5368Z" fill="white"></path><path d="M154.003 98.6483L154.371 98.4327C155.446 97.7857 155.783 96.3685 155.077 95.321C154.433 94.366 153.174 94.0579 152.161 94.6433L151.793 94.8589C150.718 95.5059 150.411 96.9231 151.117 97.9706C151.762 98.9256 153.021 99.2029 154.003 98.6483Z" fill="white"></path><path d="M149.123 101.729L149.491 101.514C150.565 100.867 150.903 99.4495 150.197 98.402C149.552 97.4469 148.294 97.1388 147.281 97.7242L146.913 97.9399C145.838 98.5868 145.501 100.004 146.207 101.051C146.851 102.007 148.14 102.315 149.123 101.729Z" fill="white"></path><path d="M163.426 100.374L163.794 100.158C164.869 99.5109 165.206 98.0937 164.5 97.0463C163.856 96.0912 162.597 95.7831 161.584 96.3685L161.216 96.5841C160.141 97.2311 159.804 98.6483 160.51 99.6958C161.154 100.651 162.444 100.928 163.426 100.374Z" fill="white"></path><path d="M158.024 103.454L158.392 103.239C160.878 101.791 158.73 97.9705 156.182 99.4493L155.814 99.665C154.739 100.312 154.402 101.729 155.108 102.777C155.752 103.732 157.041 104.04 158.024 103.454Z" fill="white"></path><path d="M152.621 106.566L152.99 106.35C154.064 105.703 154.402 104.286 153.696 103.239C153.051 102.284 151.793 101.976 150.78 102.561L150.411 102.777C149.337 103.424 148.999 104.841 149.705 105.888C150.35 106.843 151.608 107.121 152.621 106.566Z" fill="white"></path><path d="M166.957 105.303L167.325 105.087C168.399 104.44 168.737 103.023 168.031 101.976C167.386 101.021 166.128 100.713 165.115 101.298L164.747 101.514C163.672 102.161 163.334 103.578 164.04 104.625C164.716 105.58 165.974 105.888 166.957 105.303Z" fill="white"></path><path d="M161.554 108.384L161.923 108.168C162.997 107.521 163.335 106.104 162.629 105.057C161.984 104.101 160.725 103.793 159.713 104.379L159.344 104.594C158.27 105.241 157.932 106.659 158.638 107.706C159.283 108.692 160.572 108.969 161.554 108.384Z" fill="white"></path><path d="M156.152 111.495L156.521 111.28C157.595 110.633 157.933 109.216 157.227 108.168C156.582 107.213 155.323 106.905 154.31 107.49L153.942 107.706C152.868 108.353 152.53 109.77 153.236 110.818C153.881 111.773 155.139 112.081 156.152 111.495Z" fill="white"></path><path d="M144.365 118.489L151.395 114.33C151.824 114.083 151.978 113.467 151.671 113.067L150.167 110.941C149.89 110.571 149.399 110.448 149 110.695L141.971 114.854C141.541 115.1 141.388 115.716 141.695 116.117L143.199 118.243C143.475 118.612 143.997 118.735 144.365 118.489Z" fill="#8CC63F"></path><path d="M140.834 113.806L147.864 109.647C148.293 109.401 148.447 108.784 148.14 108.384L146.636 106.258C146.36 105.888 145.868 105.765 145.469 106.012L138.44 110.171C138.01 110.417 137.857 111.033 138.164 111.434L139.668 113.56C139.944 113.929 140.435 114.022 140.834 113.806Z" fill="#FE405A"></path><path d="M140.712 103.609L142.646 102.469C143.075 102.222 143.229 101.606 142.922 101.205C142.646 100.836 142.155 100.713 141.755 100.959L139.822 102.099C139.392 102.345 139.238 102.962 139.545 103.362C139.822 103.732 140.313 103.855 140.712 103.609Z" fill="white"></path><path d="M135.493 106.628L137.427 105.488C137.857 105.241 138.01 104.625 137.703 104.225C137.427 103.855 136.936 103.732 136.537 103.978L134.603 105.118C134.173 105.365 134.02 105.981 134.327 106.381C134.603 106.751 135.094 106.843 135.493 106.628Z" fill="white"></path><path d="M142.4 106.073L144.334 104.933C144.763 104.687 144.917 104.071 144.61 103.67C144.334 103.301 143.843 103.177 143.443 103.424L141.51 104.564C141.08 104.81 140.926 105.426 141.233 105.827C141.51 106.197 142.001 106.32 142.4 106.073Z" fill="white"></path><path d="M137.181 109.092L139.115 107.953C139.545 107.706 139.698 107.09 139.391 106.689C139.115 106.32 138.624 106.196 138.225 106.443L136.291 107.583C135.861 107.829 135.708 108.445 136.015 108.846C136.291 109.216 136.782 109.308 137.181 109.092Z" fill="white"></path><path d="M155.567 88.4201C155.383 88.759 155.107 89.0363 154.739 89.2519L140.373 97.601C140.035 97.7859 139.667 97.8783 139.298 97.8783C138.562 97.8783 137.825 97.5394 137.395 96.8924C136.843 96.1222 136.843 95.1363 137.273 94.3661C137.487 94.0272 137.764 93.75 138.132 93.5343L152.406 85.216C152.774 85.0004 153.173 84.908 153.572 84.908C154.309 84.908 155.046 85.2469 155.475 85.8938C156.028 86.664 156.028 87.6807 155.567 88.4201Z" fill="#85BCFF"></path><path d="M155.567 88.42C155.383 88.7589 155.107 89.0362 154.739 89.2519L140.373 97.6009C140.035 97.7858 139.667 97.8782 139.298 97.8782C138.562 97.8782 137.825 97.5393 137.395 96.8923C136.843 96.1221 136.843 95.1363 137.273 94.366L155.567 88.42Z" fill="#A7A9AC"></path><path d="M113.515 55.486L113.576 55.5784C113.76 55.9173 114.221 56.0405 114.558 55.8557L131.165 46.5515C131.564 46.3359 131.656 45.8121 131.38 45.4424C131.165 45.1651 130.766 45.1035 130.49 45.2576C124.934 48.3384 119.378 51.4193 113.852 54.5001C113.453 54.6849 113.33 55.1471 113.515 55.486Z" fill="#7CB4F7"></path><path d="M115.418 60.8158L115.449 60.8774C115.633 61.2163 116.093 61.3396 116.431 61.1547L133.038 51.8506C133.437 51.6349 133.529 51.1112 133.253 50.7415C133.038 50.4642 132.639 50.4026 132.362 50.5566C126.806 53.6375 121.25 56.7183 115.725 59.7992C115.326 60.0148 115.203 60.4769 115.418 60.8158Z" fill="#7CB4F7"></path><path d="M117.105 67.1007L117.136 67.1624C117.32 67.5013 117.78 67.6245 118.118 67.4396L134.725 58.1355C135.124 57.9198 135.216 57.3961 134.94 57.0264C134.725 56.7491 134.326 56.6875 134.049 56.8416C128.493 59.9224 122.937 63.0032 117.412 66.0841C117.044 66.2997 116.921 66.731 117.105 67.1007Z" fill="#7CB4F7"></path><path d="M118.303 72.4305L118.333 72.4921C118.517 72.831 118.978 72.9542 119.316 72.7694L135.922 63.4652C136.321 63.2496 136.413 62.7258 136.137 62.3561C135.922 62.0788 135.523 62.0172 135.247 62.1713C129.691 65.2521 124.135 68.3329 118.61 71.4138C118.211 71.6294 118.088 72.0608 118.303 72.4305Z" fill="#7CB4F7"></path><path d="M157.471 60.1072C156.459 60.1688 155.476 60.2305 154.463 60.2921L145.5 65.5295C146.513 65.4679 147.495 65.4063 148.508 65.3446C148.631 65.3446 148.784 65.3446 148.907 65.3138L157.871 60.0764C157.748 60.0764 157.594 60.0764 157.471 60.1072Z" fill="#4B6CCC"></path><path d="M160.356 71.7836L169.32 66.5462C165.513 64.3896 161.676 62.2022 157.87 60.0764L148.907 65.3138C152.713 67.4396 156.519 69.627 160.356 71.7836Z" fill="#7CB4F7"></path><path d="M160.356 71.7836L169.32 66.5462C165.513 64.3896 161.676 62.2022 157.87 60.0764L148.907 65.3138C152.713 67.4396 156.519 69.627 160.356 71.7836Z" fill="#ABCFFA"></path><path d="M189.334 180.414C189.027 180.414 188.72 180.26 188.566 179.982C188.29 179.551 188.443 178.997 188.873 178.719L220.153 159.341C232.032 151.978 246.336 150.53 259.444 155.305C260.579 155.736 259.965 157.462 258.83 157.03C246.244 152.44 232.523 153.857 221.135 160.912L189.856 180.291C189.671 180.383 189.518 180.414 189.334 180.414Z" fill="#4B6CCC"></path><path d="M296.678 257.866C296.34 257.866 296.033 257.681 295.849 257.373C295.634 256.911 295.787 256.356 296.248 256.141C309.539 249.363 318.503 236.423 320.222 221.574C321.941 206.724 316.17 192.09 304.812 182.447L295.972 176.44C294.959 175.762 296.002 174.221 297.015 174.899C297.077 174.93 305.917 180.938 305.979 180.999C317.858 191.043 323.874 206.293 322.094 221.789C320.314 237.286 310.982 250.719 297.138 257.804C296.954 257.835 296.831 257.866 296.678 257.866Z" fill="#4B6CCC"></path><path d="M269.85 226.934C275.13 229.985 275.16 234.945 269.911 238.025L240.689 255.401C235.44 258.451 226.906 258.451 221.626 255.401L135.186 205.276C129.907 202.226 129.876 197.266 135.125 194.185L164.348 176.809C169.597 173.759 178.13 173.759 183.41 176.809L269.85 226.934Z" fill="#D6F0FF"></path><path d="M265.245 237.409C252.015 245.142 245.415 249.763 239.767 251.643C236.821 252.629 234.119 252.875 230.835 252.413C225.801 251.704 230.098 253.553 142.031 202.534C137.488 199.915 138.194 197.328 138.255 192.521C138.255 196.681 139.606 196.28 224.726 245.604C227.827 247.391 232.063 248.038 235.869 247.699C236.452 247.638 236.974 247.607 237.465 247.514C241.548 246.929 243.727 245.173 265.307 232.572C267.762 231.155 268.99 229.307 269.051 227.427C268.99 232.326 269.696 234.821 265.245 237.409Z" fill="#4B6CCC"></path><path d="M265.184 221.974C270.249 224.901 270.28 229.646 265.246 232.572L242.93 245.574C237.895 248.5 229.73 248.5 224.696 245.574L142.031 197.697C136.997 194.771 136.967 190.026 141.97 187.099L164.286 174.098C169.29 171.171 177.455 171.171 182.52 174.098L265.184 221.974Z" fill="white"></path><path d="M262.206 224.686V226.164L260.18 227.366V225.887L262.206 224.686Z" fill="#F7941D"></path><path d="M260.18 225.887V227.366L257.326 225.702V224.224L260.18 225.887Z" fill="#FBB040"></path><path d="M262.206 224.686L260.18 225.887L257.326 224.223L259.352 223.053L262.206 224.686Z" fill="#FFDDA6"></path><path d="M258.186 227.243V228.721L256.129 229.892L256.16 228.444L258.186 227.243Z" fill="#F7941D"></path><path d="M256.16 228.444L256.129 229.892L253.275 228.259V226.78L256.16 228.444Z" fill="#FBB040"></path><path d="M258.186 227.243L256.16 228.444L253.275 226.78L255.301 225.579L258.186 227.243Z" fill="#FFDDA6"></path><path d="M182.121 178.381V179.829L178.222 182.108V180.66L182.121 178.381Z" fill="#1B305A"></path><path d="M178.223 180.66V182.108L172.697 178.935V177.456L178.223 180.66Z" fill="#1654BB"></path><path d="M182.121 178.381L178.223 180.66L172.697 177.456L176.596 175.177L182.121 178.381Z" fill="#4B6CCC"></path><path d="M190.194 183.033V184.481L186.295 186.761V185.313L190.194 183.033Z" fill="#1B305A"></path><path d="M186.296 185.312V186.76L180.77 183.587V182.108L186.296 185.312Z" fill="#1654BB"></path><path d="M190.194 183.033L186.296 185.313L180.77 182.108L184.699 179.829L190.194 183.033Z" fill="#4B6CCC"></path><path d="M198.298 187.685L198.267 189.164L194.368 191.443V189.965L198.298 187.685Z" fill="#1B305A"></path><path d="M194.369 189.965V191.443L188.843 188.239L188.874 186.76L194.369 189.965Z" fill="#1654BB"></path><path d="M198.297 187.685L194.368 189.964L188.874 186.76L192.772 184.481L198.297 187.685Z" fill="#4B6CCC"></path><path d="M206.064 192.121L206.034 193.6L202.104 195.911V194.432L206.064 192.121Z" fill="#1B305A"></path><path d="M202.105 194.432V195.91L196.579 192.676V191.197L202.105 194.432Z" fill="#1654BB"></path><path d="M206.064 192.121L202.105 194.432L196.579 191.197L200.508 188.917L206.064 192.121Z" fill="#4B6CCC"></path><path d="M214.198 196.835L214.167 198.314L210.238 200.593L210.269 199.115L214.198 196.835Z" fill="#1B305A"></path><path d="M210.269 199.115L210.238 200.593L204.713 197.389V195.911L210.269 199.115Z" fill="#1654BB"></path><path d="M214.198 196.835L210.269 199.115L204.713 195.91L208.642 193.6L214.198 196.835Z" fill="#4B6CCC"></path><path d="M222.333 201.518V202.997L218.373 205.276L218.404 203.798L222.333 201.518Z" fill="#1B305A"></path><path d="M218.404 203.798L218.373 205.276L212.848 202.072V200.594L218.404 203.798Z" fill="#1654BB"></path><path d="M222.333 201.518L218.404 203.798L212.848 200.593L216.777 198.283L222.333 201.518Z" fill="#4B6CCC"></path><path d="M175.245 182.571V184.049L171.316 186.329V184.85L175.245 182.571Z" fill="#1B305A"></path><path d="M171.316 184.85V186.329L165.821 183.125V181.646L171.316 184.85Z" fill="#1654BB"></path><path d="M175.245 182.571L171.316 184.85L165.821 181.646L169.72 179.366L175.245 182.571Z" fill="#4B6CCC"></path><path d="M183.318 187.223V188.701L179.419 190.981V189.502L183.318 187.223Z" fill="#1B305A"></path><path d="M179.419 189.502V190.981L173.894 187.777V186.329L179.419 189.502Z" fill="#1654BB"></path><path d="M183.318 187.223L179.419 189.502L173.894 186.329L177.792 184.049L183.318 187.223Z" fill="#4B6CCC"></path><path d="M191.392 191.875V193.354L187.493 195.633V194.155L191.392 191.875Z" fill="#1B305A"></path><path d="M187.494 194.154V195.633L181.968 192.429V190.981L187.494 194.154Z" fill="#1654BB"></path><path d="M191.392 191.875L187.494 194.154L181.968 190.981L185.897 188.701L191.392 191.875Z" fill="#4B6CCC"></path><path d="M199.157 196.342V197.821L195.228 200.1V198.622L199.157 196.342Z" fill="#1B305A"></path><path d="M195.229 198.622V200.1L189.673 196.896V195.417L195.229 198.622Z" fill="#1654BB"></path><path d="M199.158 196.342L195.229 198.622L189.673 195.418L193.602 193.138L199.158 196.342Z" fill="#4B6CCC"></path><path d="M207.291 201.025V202.504L203.362 204.814V203.335L207.291 201.025Z" fill="#1B305A"></path><path d="M203.362 203.335V204.814L197.806 201.579V200.101L203.362 203.335Z" fill="#1654BB"></path><path d="M207.291 201.025L203.362 203.335L197.806 200.1L201.735 197.821L207.291 201.025Z" fill="#4B6CCC"></path><path d="M167.909 186.791V188.239L163.98 190.519V189.071L167.909 186.791Z" fill="#1B305A"></path><path d="M163.98 189.071V190.519L158.485 187.346V185.867L163.98 189.071Z" fill="#1654BB"></path><path d="M167.909 186.791L163.98 189.071L158.485 185.867L162.384 183.587L167.909 186.791Z" fill="#4B6CCC"></path><path d="M175.982 191.443V192.922L172.083 195.171V193.723L175.982 191.443Z" fill="#1B305A"></path><path d="M172.084 193.723V195.171L166.558 191.998V190.519L172.084 193.723Z" fill="#1654BB"></path><path d="M175.982 191.443L172.084 193.723L166.558 190.519L170.457 188.239L175.982 191.443Z" fill="#4B6CCC"></path><path d="M184.055 196.095V197.574L180.156 199.854V198.375L184.055 196.095Z" fill="#1B305A"></path><path d="M180.156 198.375V199.854L174.631 196.65V195.171L180.156 198.375Z" fill="#1654BB"></path><path d="M184.055 196.095L180.156 198.375L174.631 195.171L178.56 192.891L184.055 196.095Z" fill="#4B6CCC"></path><path d="M191.82 200.532V202.011L187.891 204.321V202.843L191.82 200.532Z" fill="#1B305A"></path><path d="M187.891 202.842V204.321L182.335 201.117V199.638L187.891 202.842Z" fill="#1654BB"></path><path d="M191.821 200.532L187.891 202.843L182.335 199.639L186.295 197.328L191.821 200.532Z" fill="#4B6CCC"></path><path d="M199.955 205.245V206.724L196.026 209.004V207.525L199.955 205.245Z" fill="#1B305A"></path><path d="M196.026 207.525V209.004L190.47 205.8V204.321L196.026 207.525Z" fill="#1654BB"></path><path d="M199.956 205.245L196.026 207.525L190.47 204.321L194.43 202.01L199.956 205.245Z" fill="#4B6CCC"></path><path d="M161.002 190.242V191.69L157.104 193.97V192.522L161.002 190.242Z" fill="#1B305A"></path><path d="M157.104 192.522V193.97L151.579 190.796V189.318L157.104 192.522Z" fill="#1654BB"></path><path d="M161.002 190.242L157.104 192.522L151.579 189.318L155.508 187.038L161.002 190.242Z" fill="#4B6CCC"></path><path d="M169.106 194.894V196.373L165.177 198.653V197.174L169.106 194.894Z" fill="#1B305A"></path><path d="M165.176 197.174V198.653L159.682 195.449V193.97L165.176 197.174Z" fill="#1654BB"></path><path d="M169.106 194.894L165.176 197.174L159.682 193.97L163.58 191.69L169.106 194.894Z" fill="#4B6CCC"></path><path d="M177.178 199.546V201.025L173.28 203.305V201.826L177.178 199.546Z" fill="#1B305A"></path><path d="M173.28 201.826V203.304L167.755 200.1V198.622L173.28 201.826Z" fill="#1654BB"></path><path d="M177.179 199.546L173.28 201.826L167.755 198.622L171.653 196.342L177.179 199.546Z" fill="#4B6CCC"></path><path d="M184.945 204.013V205.492L181.016 207.772V206.293L184.945 204.013Z" fill="#1B305A"></path><path d="M181.017 206.293V207.772L175.461 204.568V203.089L181.017 206.293Z" fill="#1654BB"></path><path d="M184.946 204.013L181.017 206.293L175.461 203.089L179.39 200.778L184.946 204.013Z" fill="#4B6CCC"></path><path d="M193.079 208.696V210.175L189.15 212.455V210.976L193.079 208.696Z" fill="#1B305A"></path><path d="M189.15 210.976V212.455L183.594 209.251V207.772L189.15 210.976Z" fill="#1654BB"></path><path d="M193.079 208.696L189.15 210.976L183.594 207.772L187.523 205.461L193.079 208.696Z" fill="#4B6CCC"></path><path d="M201.828 213.687L201.798 215.166L197.869 217.446L197.899 215.967L201.828 213.687Z" fill="#1B305A"></path><path d="M197.9 215.967L197.869 217.445L192.344 214.241V212.763L197.9 215.967Z" fill="#1654BB"></path><path d="M201.829 213.687L197.9 215.967L192.344 212.763L196.273 210.452L201.829 213.687Z" fill="#4B6CCC"></path><path d="M202.411 221.944V223.423L198.481 225.702V224.224L202.411 221.944Z" fill="#1B305A"></path><path d="M198.482 224.223V225.702L192.926 222.498V221.019L198.482 224.223Z" fill="#1654BB"></path><path d="M202.411 221.944L198.482 224.223L192.926 221.019L196.855 218.709L202.411 221.944Z" fill="#4B6CCC"></path><path d="M195.167 217.446V218.924L191.208 221.204L191.238 219.725L195.167 217.446Z" fill="#1B305A"></path><path d="M191.238 219.725L191.208 221.204L185.682 218V216.521L191.238 219.725Z" fill="#1654BB"></path><path d="M195.167 217.446L191.238 219.725L185.682 216.521L189.611 214.211L195.167 217.446Z" fill="#4B6CCC"></path><path d="M232.401 221.728V223.207L228.472 225.487V224.008L232.401 221.728Z" fill="#1B305A"></path><path d="M228.473 224.008V225.486L222.917 222.282V220.804L228.473 224.008Z" fill="#1654BB"></path><path d="M232.402 221.728L228.473 224.008L222.917 220.804L226.846 218.524L232.402 221.728Z" fill="#4B6CCC"></path><path d="M240.535 226.411V227.89L236.606 230.2V228.721L240.535 226.411Z" fill="#1B305A"></path><path d="M236.606 228.721V230.2L231.05 226.965V225.486L236.606 228.721Z" fill="#1654BB"></path><path d="M240.535 226.411L236.606 228.721L231.05 225.486L234.979 223.207L240.535 226.411Z" fill="#4B6CCC"></path><path d="M248.67 231.094V232.573L244.741 234.883V233.404L248.67 231.094Z" fill="#1B305A"></path><path d="M244.742 233.404V234.883L239.186 231.648V230.169L244.742 233.404Z" fill="#1654BB"></path><path d="M248.671 231.094L244.742 233.404L239.186 230.169L243.115 227.89L248.671 231.094Z" fill="#4B6CCC"></path><path d="M225.064 225.949V227.428L221.135 229.707V228.229L225.064 225.949Z" fill="#1B305A"></path><path d="M221.136 228.228V229.707L215.58 226.503V225.024L221.136 228.228Z" fill="#1654BB"></path><path d="M225.065 225.949L221.136 228.229L215.58 225.024L219.509 222.714L225.065 225.949Z" fill="#4B6CCC"></path><path d="M233.199 230.632V232.111L229.27 234.39V232.912L233.199 230.632Z" fill="#1B305A"></path><path d="M229.271 232.911V234.39L223.715 231.186V229.707L229.271 232.911Z" fill="#1654BB"></path><path d="M233.2 230.632L229.271 232.911L223.715 229.707L227.644 227.397L233.2 230.632Z" fill="#4B6CCC"></path><path d="M241.334 235.315V236.793L237.405 239.073V237.594L241.334 235.315Z" fill="#1B305A"></path><path d="M237.406 237.594V239.073L231.85 235.869V234.39L237.406 237.594Z" fill="#1654BB"></path><path d="M241.335 235.314L237.406 237.594L231.85 234.39L235.779 232.08L241.335 235.314Z" fill="#4B6CCC"></path><path d="M218.526 230.293L218.495 231.772L214.566 234.051V232.573L218.526 230.293Z" fill="#1B305A"></path><path d="M214.567 232.572V234.051L209.011 230.847L209.042 229.368L214.567 232.572Z" fill="#1654BB"></path><path d="M218.527 230.293L214.567 232.572L209.042 229.368L212.971 227.058L218.527 230.293Z" fill="#4B6CCC"></path><path d="M226.661 234.976L226.631 236.454L222.701 238.765V237.286L226.661 234.976Z" fill="#1B305A"></path><path d="M222.702 237.286V238.765L217.146 235.53L217.177 234.051L222.702 237.286Z" fill="#1654BB"></path><path d="M226.662 234.976L222.702 237.286L217.177 234.051L221.106 231.771L226.662 234.976Z" fill="#4B6CCC"></path><path d="M234.795 239.659L234.764 241.137L230.835 243.448V241.969L234.795 239.659Z" fill="#1B305A"></path><path d="M230.836 241.969V243.448L225.28 240.213L225.31 238.734L230.836 241.969Z" fill="#1654BB"></path><path d="M234.795 239.659L230.835 241.969L225.31 238.734L229.239 236.454L234.795 239.659Z" fill="#4B6CCC"></path><path d="M154.894 194.154L154.863 195.602L150.965 197.882V196.434L154.894 194.154Z" fill="#1B305A"></path><path d="M150.965 196.434V197.882L145.439 194.709L145.47 193.23L150.965 196.434Z" fill="#1654BB"></path><path d="M154.894 194.154L150.965 196.434L145.47 193.23L149.368 190.95L154.894 194.154Z" fill="#4B6CCC"></path><path d="M162.966 198.807V200.255L159.037 202.534L159.068 201.086L162.966 198.807Z" fill="#1B305A"></path><path d="M159.068 201.086L159.037 202.534L153.543 199.361V197.882L159.068 201.086Z" fill="#1654BB"></path><path d="M162.966 198.807L159.068 201.086L153.543 197.882L157.441 195.603L162.966 198.807Z" fill="#4B6CCC"></path><path d="M230.468 206.201V207.679L226.508 209.959L226.539 208.48L230.468 206.201Z" fill="#1B305A"></path><path d="M226.539 208.48L226.508 209.959L220.983 206.755V205.276L226.539 208.48Z" fill="#1654BB"></path><path d="M230.468 206.201L226.539 208.48L220.983 205.276L224.912 202.966L230.468 206.201Z" fill="#4B6CCC"></path><path d="M238.602 210.884V212.362L234.642 214.642L234.673 213.163L238.602 210.884Z" fill="#1B305A"></path><path d="M234.673 213.163L234.642 214.642L229.117 211.438V209.959L234.673 213.163Z" fill="#1654BB"></path><path d="M238.602 210.883L234.673 213.163L229.117 209.959L233.046 207.679L238.602 210.883Z" fill="#4B6CCC"></path><path d="M246.737 215.566V217.045L242.777 219.356L242.808 217.877L246.737 215.566Z" fill="#1B305A"></path><path d="M242.808 217.877L242.777 219.356L237.252 216.121V214.642L242.808 217.877Z" fill="#1654BB"></path><path d="M246.737 215.566L242.808 217.877L237.252 214.642L241.181 212.362L246.737 215.566Z" fill="#4B6CCC"></path><path d="M254.87 220.249V221.728L250.911 224.039L250.941 222.56L254.87 220.249Z" fill="#1B305A"></path><path d="M250.941 222.56L250.911 224.039L245.385 220.804V219.325L250.941 222.56Z" fill="#1654BB"></path><path d="M254.871 220.249L250.941 222.56L245.385 219.325L249.315 217.045L254.871 220.249Z" fill="#4B6CCC"></path><path d="M187.525 212.948V214.426L183.595 216.706V215.227L187.525 212.948Z" fill="#1654BB"></path><path d="M183.595 215.227V216.706L161.125 203.674V202.196L183.595 215.227Z" fill="#1654BB"></path><path d="M187.524 212.948L183.595 215.228L161.125 202.196L165.024 199.916L187.524 212.948Z" fill="#4B6CCC"></path><path d="M206.924 212.701V214.18L201.399 210.976V209.497L206.924 212.701Z" fill="#1654BB"></path><path d="M208.52 218.185V219.633L202.995 216.46V214.981L208.52 218.185Z" fill="#1654BB"></path><path d="M216.318 213.625V215.104L208.521 219.633V218.185L216.318 213.625Z" fill="#1654BB"></path><path d="M216.317 213.625L208.521 218.185L202.995 214.981L206.924 212.701L201.399 209.497L205.298 207.248L216.317 213.625Z" fill="#4B6CCC"></path><path d="M222.119 209.959V211.438L218.189 213.718V212.239L222.119 209.959Z" fill="#1654BB"></path><path d="M218.19 212.239V213.718L207.17 207.31V205.831L218.19 212.239Z" fill="#1654BB"></path><path d="M222.119 209.959L218.19 212.239L207.17 205.831L211.068 203.551L222.119 209.959Z" fill="#4B6CCC"></path><path d="M265.246 237.409C252.016 245.142 245.416 249.763 239.768 251.643L237.435 247.514C241.518 246.929 243.697 245.173 265.277 232.572C267.732 231.155 268.96 229.307 269.022 227.427C268.991 232.326 269.697 234.821 265.246 237.409Z" fill="#1652B7"></path><path d="M305.795 257.712C310.338 260.331 310.369 264.613 305.856 267.263L288.452 277.399C283.939 280.017 276.572 280.017 272.029 277.399L267.056 274.503C262.513 271.884 262.483 267.602 266.995 264.952L284.4 254.816C288.912 252.197 296.248 252.197 300.791 254.816L305.795 257.712Z" fill="#D6F0FF"></path><path d="M285.782 256.788H285.751C280.41 253.676 281.638 254.385 279.704 253.276C279.673 253.276 279.366 253.337 279.213 253.368C278.936 253.368 277.432 253.769 277.187 253.861C277.187 253.861 277.156 253.861 277.125 253.861C277.033 253.892 275.038 254.57 274.946 254.6C274.946 254.6 274.117 254.939 272.03 256.018C271.999 256.048 270.648 256.911 270.648 256.911C269.912 257.404 269.267 257.928 268.715 258.482C268.653 258.513 268.592 258.544 268.53 258.575C267.794 259.314 268.469 258.605 267.702 259.376C267.702 259.376 267.149 259.961 267.118 260.023C266.873 260.269 266.842 260.362 266.504 260.7C266.474 260.793 266.412 260.824 266.351 260.916C266.32 260.916 265.584 261.933 265.553 261.964C265.553 262.025 265.43 262.087 265.43 262.148C265.369 262.272 265.031 262.703 264.878 263.011C264.847 263.011 264.847 263.011 264.847 263.042C264.847 263.042 264.847 263.042 264.816 263.073C264.755 263.227 264.478 263.627 264.325 263.966C264.294 263.966 264.294 263.966 264.294 263.997L264.264 264.028C264.264 264.059 264.264 264.059 264.233 264.089C264.172 264.243 263.926 264.736 263.865 264.89C263.865 264.921 263.865 264.921 263.865 264.921C263.834 264.952 263.834 264.952 263.834 264.952C263.834 264.983 263.466 265.815 263.466 265.845C263.466 265.907 263.251 266.369 263.251 266.431C263.251 266.462 263.066 266.955 263.066 266.985C263.066 267.078 262.974 267.355 262.944 267.447C262.944 267.478 262.913 267.54 262.913 267.571C262.913 267.571 262.882 267.786 262.79 268.064C262.79 268.094 262.79 268.125 262.76 268.156V268.218C262.698 268.403 262.667 268.557 262.667 268.68C262.637 268.741 262.637 268.803 262.637 268.834C276.573 276.937 272.92 274.811 276.634 276.967C276.634 276.998 276.634 276.998 276.634 276.998L277.156 276.721C277.156 276.69 277.156 276.659 277.156 276.659C277.187 276.598 277.217 276.536 277.217 276.474C277.279 276.259 277.432 275.643 277.432 275.612C277.494 275.458 277.555 275.334 277.586 275.15C277.586 275.15 277.923 274.195 277.923 274.164C278.046 273.917 278.169 273.64 278.261 273.394V273.363C278.415 273.085 278.537 272.777 278.752 272.469C278.752 272.469 278.752 272.469 278.752 272.438C278.906 272.13 279.09 271.792 279.305 271.483C279.335 271.483 279.335 271.453 279.335 271.453C279.52 271.145 279.704 270.806 279.949 270.498C279.949 270.467 280.686 269.512 280.717 269.481C280.717 269.481 281.392 268.649 281.576 268.464C281.638 268.403 281.668 268.341 281.73 268.279C281.945 268.064 282.221 267.817 282.436 267.602C283.05 266.801 286.119 264.582 286.948 264.243C290.263 262.364 294.162 261.748 294.162 261.748C286.15 257.003 285.782 256.788 285.782 256.788Z" fill="white"></path><path d="M279.703 253.276L285.75 256.788C289.403 256.295 291.583 256.295 293.087 256.449C293.24 256.449 294.314 256.572 294.314 256.572C295.174 256.634 296.678 256.942 296.678 256.942C296.739 256.973 296.77 256.973 296.832 256.973C296.555 256.819 290.969 253.491 290.662 253.43C290.662 253.43 290.078 253.306 290.048 253.306C289.894 253.276 289.679 253.245 289.464 253.214C289.434 253.214 288.206 253.06 288.145 253.06C287.684 252.998 286.088 252.875 285.842 252.875C284.952 252.875 284.768 252.844 283.724 252.906C283.663 252.906 283.602 252.875 283.54 252.906C282.803 252.844 281.115 252.998 279.703 253.276Z" fill="#4B6CCC"></path><path d="M285.751 256.788L294.131 261.686C296.74 261.224 299.012 261.193 301.498 261.347C301.498 261.347 302.603 261.44 303.616 261.594C303.647 261.594 304.844 261.686 304.906 261.686C304.906 261.686 298.122 257.743 296.894 257.034C296.863 257.034 296.863 257.034 296.833 257.003C296.802 257.003 296.74 257.003 296.679 256.973C296.679 256.973 295.175 256.664 294.315 256.603C294.223 256.541 291.983 256.387 291.89 256.387C292.075 256.356 290.325 256.141 285.751 256.788Z" fill="#4B6CCC"></path><path d="M304.905 261.655C275.836 277.368 278.476 275.889 276.603 276.967C276.603 276.967 277.678 269.049 286.058 264.182C291.522 261.44 296.863 260.177 304.905 261.655Z" fill="#4B6CCC"></path><path d="M277.709 276.32L302.419 262.98C289.956 261.686 280.87 267.663 277.709 276.32Z" fill="#0D2458"></path><path d="M362.736 213.964C356.75 217.476 346.958 217.476 340.911 213.964L295.174 187.469L280.102 196.28C275.651 198.868 268.468 198.868 263.987 196.28L225.801 174.16C221.319 171.572 221.319 167.382 225.739 164.794L240.811 155.983L215.917 141.564C209.87 138.052 209.839 132.384 215.855 128.871C221.841 125.359 231.633 125.39 237.649 128.871L362.613 201.271C368.691 204.783 368.752 210.483 362.736 213.964Z" fill="#D6F0FF"></path><path d="M298.581 168.183L298.612 168.152C298.55 168.46 292.718 177.056 283.509 180.907C282.465 181.338 281.391 181.708 280.286 182.016C278.628 182.447 272.643 183.341 267.179 188.732C265.552 190.334 263.925 192.491 265.797 193.754C263.25 192.275 228.041 171.788 227.734 171.479C225.555 169.354 230.62 165.349 233.014 163.747C242.1 157.739 249.958 161.652 260.733 146.247C264.355 141.164 266.503 135.526 267.394 129.18C270.463 107.583 257.939 84.261 261.991 74.6488C261.991 74.1867 263.096 72.8619 264.109 72.523C265.276 72.0917 263.771 71.6604 303.155 94.6126C302.786 94.3662 302.295 94.397 301.896 94.551C293.946 97.3238 305.242 125.421 305.887 143.66C306.193 152.193 303.615 161.374 298.581 168.183Z" fill="white"></path><path d="M298.58 168.183L298.611 168.152C298.55 168.429 294.191 174.899 287.039 179.12L249.19 157.184C257.233 152.964 265.551 142.088 267.393 129.18C275.221 131.336 293.792 137.96 305.855 143.66C306.193 152.193 303.615 161.374 298.58 168.183Z" fill="#D6F0FF"></path><path d="M304.628 164.702C300.422 172.804 293.731 178.75 287.499 183.002C281.974 186.791 276.848 189.256 274.085 190.735C271.077 192.367 268.59 193.446 266.841 194.154C260.855 193.014 269.788 184.234 279.15 182.262C281.882 181.708 284.522 180.599 287.008 179.12C294.406 174.776 300.484 166.981 303.4 158.94C311.074 137.991 298.212 116.271 299.102 100.066C299.164 99.1105 299.317 96.7383 300.422 95.5676C301.681 94.212 303.124 94.058 303.676 95.2287C305.242 98.71 319.116 136.574 304.628 164.702Z" fill="#ABCFFA"></path><path d="M307.115 159.156C303.738 168.091 298.151 175.731 287.5 183.033L287.009 183.187V179.151C294.406 174.807 300.484 167.012 303.4 158.971L305.58 156.291L307.115 159.156Z" fill="#7190B4"></path><path d="M371.484 86.2634C215.18 -4.31317 223.253 -0.246459 220.183 0.123241C219.078 0.246475 219.017 0.400517 213.707 2.9268C215.702 1.97174 218.004 2.49549 219.938 3.60459L366.604 88.6049C369.489 90.2685 371.791 93.3186 373.173 96.4302C375.721 102.191 375.26 97.3236 368.077 193.353C367.832 196.465 366.512 198.622 364.609 199.546C369.612 197.143 372.528 196.619 372.958 190.981L379.619 102.099C380.049 96.1837 376.365 89.0978 371.484 86.2634Z" fill="#ABCFFA"></path><path d="M366.604 88.6049C371.515 91.4701 375.168 98.5561 374.708 104.471L368.047 193.353C367.617 199.269 363.258 201.733 358.316 198.868L211.681 113.868C206.769 111.003 203.117 103.917 203.577 98.0015L210.238 9.11936C210.668 3.23496 215.027 0.739483 219.938 3.60466L366.604 88.6049Z" fill="#4B6CCC"></path><path d="M362.797 90.4226C367.186 92.9797 370.44 99.3262 370.072 104.594L364.117 184.111C363.718 189.379 359.819 191.597 355.43 189.04L215.609 108.261C211.22 105.704 207.966 99.357 208.365 94.0888L214.32 14.5724C214.719 9.30417 218.617 7.08597 223.007 9.64306L362.797 90.4226Z" fill="white"></path><path d="M358.101 87.7113L350.704 186.329C345.332 183.217 226.783 114.73 218.772 110.109C226.507 6.74696 226.139 13.6172 225.893 11.3374C234.028 16.0511 352.975 84.7537 358.101 87.7113Z" fill="#E0EBFF"></path><path d="M276.971 40.8519C276.971 40.9443 269.573 139.377 269.573 139.469L266.289 137.559L273.686 38.9418L276.971 40.8519Z" fill="white"></path><path d="M277.677 148.496C277.463 151.454 273.687 149.359 273.902 146.309C274.117 143.32 277.892 145.477 277.677 148.496Z" fill="white"></path><path d="M252.966 60.1688C252.904 61.0314 252.26 61.4011 251.554 60.9698L246.581 58.0738C244.831 57.0571 245.108 53.9455 246.827 54.9313C251.462 57.6733 253.089 58.1662 252.966 60.1688Z" fill="white"></path><path d="M259.934 58.8441C259.873 59.7067 259.228 60.0764 258.522 59.6451L246.95 52.9289C245.2 51.9122 245.476 48.8006 247.195 49.7864C258.921 56.6259 260.088 56.7491 259.934 58.8441Z" fill="white"></path><path d="M260.303 53.6682C260.241 54.5308 259.597 54.9005 258.891 54.4692L247.318 47.753C245.568 46.7363 245.845 43.6247 247.564 44.6105C259.32 51.45 260.456 51.604 260.303 53.6682Z" fill="white"></path><path d="M237.496 39.1267C240.32 40.7595 242.376 44.7954 242.131 48.1535C241.885 51.5117 239.399 52.9288 236.575 51.296C233.782 49.6632 231.694 45.6273 231.94 42.2383C232.216 38.911 234.702 37.4938 237.496 39.1267Z" fill="white"></path><path d="M260.978 46.4591C263.311 47.8146 265.061 51.2035 264.846 54.0071L263.771 68.3946C263.557 71.1982 261.5 72.3689 259.136 71.0133L232.554 55.6091C230.221 54.2536 228.471 50.8647 228.686 48.0611L229.76 33.6736C229.975 30.87 232.032 29.6993 234.395 31.0549L260.978 46.4591ZM236.575 51.296C239.399 52.9288 241.854 51.5116 242.131 48.1535C242.376 44.7954 240.32 40.7287 237.496 39.1267C234.702 37.4938 232.216 38.911 231.94 42.2691C231.694 45.6272 233.781 49.6939 236.575 51.296ZM258.492 59.645C260.211 60.6309 260.456 57.5193 258.737 56.5026L247.165 49.7864C246.459 49.355 245.814 49.7247 245.753 50.5874C245.691 51.45 246.213 52.4975 246.95 52.898L258.492 59.645ZM258.891 54.5C260.61 55.4859 260.855 52.3743 259.136 51.3576L247.564 44.6414C246.858 44.21 246.213 44.5797 246.152 45.4424C246.091 46.305 246.612 47.3525 247.349 47.753L258.891 54.5ZM251.524 60.9698C253.212 61.9557 253.519 58.844 251.769 57.8273L246.797 54.9314C246.091 54.5 245.446 54.8697 245.385 55.7324C245.323 56.595 245.845 57.6425 246.582 58.043L251.524 60.9698Z" fill="#9464FB"></path><path d="M295.482 123.326C295.42 124.219 294.745 124.589 294.039 124.158L280.134 116.086C278.353 115.069 278.63 111.865 280.379 112.882C294.714 121.2 295.635 121.2 295.482 123.326Z" fill="white"></path><path d="M294.652 134.479C294.591 135.372 293.946 135.742 293.21 135.31L279.304 127.239C277.524 126.222 277.8 123.049 279.55 124.035C294.008 132.445 294.806 132.353 294.652 134.479Z" fill="white"></path><path d="M291.337 126.622C291.276 127.485 290.631 127.855 289.925 127.423L279.734 121.508C277.984 120.492 278.261 117.38 279.98 118.366C290.386 124.435 291.491 124.527 291.337 126.622Z" fill="white"></path><path d="M309.418 143.074C309.357 143.937 308.712 144.306 307.975 143.875L297.784 137.96C296.035 136.943 296.311 133.832 298.03 134.817C308.436 140.856 309.572 140.979 309.418 143.074Z" fill="white"></path><path d="M290.479 137.806C290.417 138.669 289.773 139.038 289.067 138.607L278.875 132.692C277.126 131.675 277.402 128.563 279.121 129.549C289.527 135.619 290.632 135.711 290.479 137.806Z" fill="white"></path><path d="M306.502 123.511C310.308 125.729 313.132 131.213 312.794 135.773L311.751 149.667C311.413 154.227 308.036 156.168 304.23 153.95L281.331 140.671C277.525 138.453 274.7 132.969 275.038 128.379L276.082 114.484C276.419 109.924 279.796 108.014 283.602 110.202L306.502 123.511ZM293.21 135.31C294.96 136.327 295.236 133.154 293.456 132.106L279.55 124.035C277.801 123.018 277.525 126.191 279.305 127.239L293.21 135.31ZM280.379 112.882C278.63 111.865 278.384 115.039 280.134 116.086L294.039 124.158C295.758 125.174 296.065 122.001 294.285 120.954L280.379 112.882ZM308.374 138.206C310.124 139.223 310.4 136.05 308.62 135.002L294.714 126.931C292.965 125.914 292.688 129.087 294.469 130.135L308.374 138.206ZM308.835 132.723C310.553 133.708 310.83 130.597 309.08 129.58L298.889 123.665C297.17 122.679 296.894 125.791 298.643 126.807L308.835 132.723ZM307.975 143.875C309.694 144.861 309.97 141.749 308.221 140.733L298.029 134.817C296.31 133.832 296.034 136.943 297.784 137.96L307.975 143.875ZM289.066 138.607C290.785 139.593 291.031 136.481 289.312 135.464L279.121 129.549C277.402 128.563 277.125 131.675 278.875 132.692L289.066 138.607ZM279.919 118.397C278.2 117.411 277.924 120.522 279.673 121.539L289.864 127.454C291.583 128.44 291.829 125.329 290.11 124.312L279.919 118.397Z" fill="#FF8900"></path><path d="M309.847 137.375C309.786 138.268 309.141 138.638 308.405 138.206L294.499 130.135C292.719 129.118 292.995 125.945 294.745 126.931C309.111 135.28 310.001 135.249 309.847 137.375Z" fill="white"></path><path d="M310.246 131.891C310.185 132.753 309.54 133.123 308.804 132.692L298.613 126.777C296.863 125.76 297.139 122.648 298.858 123.634C309.264 129.673 310.4 129.796 310.246 131.891Z" fill="white"></path><path d="M313.07 94.1197C313.009 95.0131 312.364 95.3828 311.627 94.9515L297.722 86.8797C295.942 85.8322 296.218 82.6898 297.968 83.6756C312.303 92.0247 313.224 91.9939 313.07 94.1197Z" fill="white"></path><path d="M313.47 88.6357C313.408 89.4984 312.764 89.8681 312.027 89.4368L301.836 83.5215C300.086 82.5049 300.362 79.3932 302.081 80.3791C312.579 86.4792 313.623 86.5716 313.47 88.6357Z" fill="white"></path><path d="M297.907 90.8539C297.846 91.7473 297.201 92.117 296.464 91.6857L282.559 83.6139C280.779 82.5665 281.055 79.424 282.805 80.4099C297.262 88.8206 298.061 88.7281 297.907 90.8539Z" fill="white"></path><path d="M294.53 83.3675C294.468 84.2301 293.824 84.5998 293.118 84.1993L282.927 78.2841C281.177 77.2674 281.453 74.1558 283.172 75.1417C293.578 81.1801 294.714 81.2725 294.53 83.3675Z" fill="white"></path><path d="M310.799 81.519C313.991 83.3675 316.355 87.9887 316.079 91.809L315.526 99.3262C315.25 103.146 312.426 104.779 309.233 102.9L284.093 88.3276C280.901 86.4791 278.537 81.8579 278.813 78.0376L279.366 70.5204C279.642 66.7002 282.466 65.0673 285.659 66.9466L310.799 81.519ZM311.597 94.9514C313.347 95.9681 313.623 92.7948 311.842 91.7474L297.937 83.6756C296.187 82.6589 295.911 85.8322 297.692 86.8796L311.597 94.9514ZM296.433 91.6857C298.183 92.7024 298.459 89.5292 296.679 88.4817L282.773 80.4099C281.024 79.3932 280.747 82.5665 282.528 83.6139L296.433 91.6857ZM283.602 69.627C281.852 68.6103 281.576 71.7835 283.356 72.831L297.262 80.9028C299.011 81.9195 299.288 78.7462 297.507 77.6987L283.602 69.627ZM283.142 75.1108C281.423 74.125 281.177 77.2366 282.896 78.2533L293.087 84.1685C294.806 85.1544 295.052 82.0427 293.333 81.026L283.142 75.1108ZM312.027 89.4367C313.746 90.4226 314.022 87.311 312.272 86.2943L302.081 80.3791C301.344 79.9478 300.73 80.3175 300.638 81.1801C300.485 83.3059 301.59 83.3983 312.027 89.4367Z" fill="#FF8900"></path><path d="M298.705 80.071C298.643 80.9644 297.999 81.3342 297.262 80.9028L283.357 72.831C281.576 71.8144 281.853 68.6411 283.602 69.627C297.937 77.9452 298.858 77.9144 298.705 80.071Z" fill="white"></path><path d="M350.089 93.8116C350.028 94.705 349.383 95.0747 348.646 94.6434L334.741 86.5716C332.961 85.5241 333.237 82.3816 334.986 83.3675C349.322 91.6858 350.242 91.6858 350.089 93.8116Z" fill="white"></path><path d="M349.291 88.8514C351.379 90.0529 352.883 93.0413 352.699 95.5368C352.515 98.0014 350.673 99.0489 348.616 97.8474L319.424 80.9336C314.39 78.0068 315.219 69.1032 320.099 71.9376L349.291 88.8514ZM348.647 94.6125C350.397 95.6292 350.673 92.4559 348.892 91.4084L334.987 83.3367C333.268 82.32 332.961 85.4932 334.742 86.5407L348.647 94.6125ZM330.137 83.8604C331.856 84.8463 332.132 81.7346 330.383 80.7179L320.192 74.8027C318.473 73.8169 318.196 76.9285 319.946 77.9452L330.137 83.8604Z" fill="#ABCFFA"></path><path d="M331.58 83.0594C331.519 83.9221 330.874 84.2918 330.168 83.8913C319.732 77.8528 318.627 77.7296 318.78 75.6346C318.842 74.772 319.486 74.4023 320.192 74.8028C330.629 80.8721 331.734 80.9645 331.58 83.0594Z" fill="white"></path><path d="M332.532 122.402C332.47 123.295 331.826 123.665 331.089 123.233C316.723 114.915 315.802 114.946 315.987 112.82C316.048 111.927 316.693 111.557 317.429 111.988C331.764 120.307 332.685 120.276 332.532 122.402Z" fill="white"></path><path d="M328.388 125.575C328.327 126.437 327.682 126.807 326.976 126.376C316.509 120.307 315.434 120.214 315.588 118.15C315.649 117.287 316.294 116.918 317 117.318C327.436 123.387 328.542 123.48 328.388 125.575Z" fill="white"></path><path d="M345.302 124.866C348.064 126.468 350.09 130.412 349.845 133.708L349.538 137.621C349.292 140.917 346.867 142.304 344.105 140.702L317.368 125.205C314.606 123.603 312.58 119.66 312.825 116.363L313.132 112.451C313.378 109.154 315.803 107.768 318.565 109.37L345.302 124.866ZM331.089 123.233C332.839 124.25 333.115 121.077 331.335 120.029L317.43 111.988C315.68 110.972 315.404 114.145 317.184 115.192L331.089 123.233ZM345.854 131.798C347.573 132.784 347.85 129.672 346.1 128.656L335.909 122.741C334.19 121.755 333.914 124.866 335.663 125.883L345.854 131.798ZM326.976 126.407C328.695 127.393 328.941 124.281 327.222 123.264L317.031 117.349C315.312 116.363 315.035 119.475 316.785 120.492L326.976 126.407Z" fill="#ABCFFA"></path><path d="M347.297 130.997C347.236 131.86 346.591 132.23 345.854 131.798L335.663 125.883C333.914 124.866 334.19 121.755 335.909 122.741C346.315 128.779 347.451 128.902 347.297 130.997Z" fill="white"></path><path d="M232.309 60.0147C232.431 60.4768 232.585 61.3702 232.953 61.6475L233.782 62.2637C234.181 62.5718 234.273 63.2496 233.966 63.4036C233.506 63.6501 233.107 63.7425 233.137 64.2046C233.199 64.9748 233.383 66.0839 232.677 65.6834C232.493 65.591 231.91 64.7592 231.756 64.6051C231.664 64.4511 231.48 64.3278 231.296 64.3587C231.05 64.3587 230.467 64.4203 230.283 64.3278C229.607 63.9273 229.914 63.2188 230.068 62.4794C230.16 62.0788 229.638 61.247 229.423 60.8465C229.178 60.3536 229.362 59.8606 229.761 60.0147L230.59 60.3536C230.958 60.5076 231.173 59.9531 231.418 59.5526C231.664 59.152 232.155 59.5217 232.309 60.0147Z" fill="#FF8900"></path><path d="M238.663 63.6809C238.786 64.143 238.939 65.0364 239.308 65.3137L240.136 65.9299C240.536 66.238 240.628 66.9158 240.321 67.0698C239.891 67.3163 239.461 67.4087 239.492 67.8708C239.553 68.641 239.707 69.7501 239.031 69.3496C238.847 69.2572 238.264 68.4254 238.111 68.2713C237.988 68.1173 237.834 67.994 237.65 67.994C237.405 67.994 236.821 68.0557 236.637 67.9632C235.962 67.5627 236.238 66.8541 236.422 66.1147C236.514 65.7142 235.993 64.8824 235.778 64.4819C235.532 63.989 235.716 63.496 236.115 63.6501L236.944 63.989C237.312 64.143 237.527 63.5576 237.773 63.1879C238.018 62.849 238.54 63.2187 238.663 63.6809Z" fill="#FF8900"></path><path d="M245.048 67.3779C245.171 67.8709 245.324 68.7335 245.693 69.0108L246.521 69.6269C246.921 69.935 247.013 70.6128 246.706 70.7668C246.276 71.0133 245.846 71.1057 245.877 71.5679C245.938 72.3381 246.092 73.4164 245.416 73.0467C245.232 72.9542 244.649 72.1224 244.496 71.9684C244.403 71.8451 244.219 71.6911 244.035 71.7219C243.79 71.7219 243.206 71.7835 243.022 71.6911C242.347 71.2906 242.623 70.582 242.807 69.8426C242.899 69.4113 242.378 68.6103 242.163 68.2097C241.917 67.7168 242.101 67.2239 242.5 67.3779L243.329 67.7168C243.697 67.8709 243.912 67.2855 244.158 66.9158C244.403 66.5461 244.925 66.9158 245.048 67.3779Z" fill="#FF8900"></path><path d="M251.402 71.0749C251.525 71.5371 251.678 72.4305 252.046 72.7078L252.875 73.3239C253.274 73.632 253.366 74.3098 253.059 74.4639C252.599 74.7103 252.2 74.8028 252.231 75.2649C252.292 76.0351 252.476 77.1442 251.77 76.7437C251.586 76.6513 251.003 75.8194 250.849 75.6654C250.757 75.5113 250.573 75.3881 250.389 75.4189C250.143 75.4189 249.56 75.5113 249.376 75.3881C248.7 74.9876 248.977 74.279 249.161 73.5396C249.253 73.1391 248.731 72.3073 248.516 71.9068C248.24 71.4138 248.455 70.9209 248.854 71.0749L249.683 71.4138C250.051 71.5679 250.266 71.0133 250.512 70.6128C250.757 70.2431 251.279 70.6128 251.402 71.0749Z" fill="#FF8900"></path><path d="M257.786 74.7718C257.909 75.234 258.062 76.1274 258.43 76.4047L259.259 77.0208C259.658 77.3289 259.75 78.0067 259.443 78.1608C258.983 78.4072 258.584 78.4996 258.615 78.9618C258.676 79.732 258.83 80.8411 258.154 80.4406C257.97 80.3482 257.356 79.5163 257.233 79.3315C257.141 79.1774 256.957 79.0542 256.773 79.085C256.527 79.085 255.944 79.1466 255.76 79.0542C255.085 78.6537 255.361 77.9451 255.545 77.2057C255.637 76.8052 255.115 75.9734 254.9 75.5729C254.655 75.0799 254.839 74.587 255.238 74.741L256.067 75.0799C256.435 75.234 256.65 74.6486 256.896 74.2789C257.141 73.9092 257.663 74.3097 257.786 74.7718Z" fill="white"></path><path d="M244.034 81.7964C245.784 82.8131 247.104 85.3702 246.95 87.4959L246.644 91.6551C246.49 93.7808 244.925 94.6435 243.144 93.6268L229.27 85.5858C227.52 84.5691 226.2 82.012 226.353 79.9171L226.66 75.7579C226.814 73.6322 228.379 72.7387 230.129 73.7862L244.034 81.7964Z" fill="#2B6DAD"></path><path d="M242.469 96.5843C244.219 97.6009 245.539 100.158 245.385 102.253L245.078 106.412C244.925 108.538 243.359 109.401 241.61 108.384L227.735 100.343C225.955 99.3262 224.665 96.7691 224.819 94.6741L225.126 90.515C225.279 88.3892 226.845 87.5266 228.625 88.5433L242.469 96.5843Z" fill="#ABCFFA"></path><path d="M258.676 90.4844C259.966 91.2238 260.917 93.0723 260.795 94.6435L260.334 100.867C260.211 102.407 259.076 103.054 257.786 102.315L251.678 98.7718C250.389 98.0324 249.437 96.1531 249.56 94.6435L250.02 88.4202C250.143 86.8798 251.279 86.2328 252.568 86.9722L258.676 90.4844Z" fill="#ABCFFA"></path><path d="M257.295 105.057C258.584 105.796 259.536 107.645 259.413 109.216L258.953 115.439C258.83 116.98 257.694 117.626 256.405 116.887L250.296 113.344C249.007 112.605 248.056 110.756 248.178 109.216L248.639 102.962C248.762 101.421 249.897 100.774 251.187 101.514L257.295 105.057Z" fill="#FB3F5C"></path><path d="M433.122 232.572C440.489 236.855 440.551 243.756 433.214 248.038L405.035 264.49C397.73 268.772 385.789 268.772 378.452 264.49L356.014 250.749C348.646 246.467 348.616 239.566 355.952 235.283L384.131 218.832C391.437 214.549 403.347 214.549 410.714 218.832L433.122 232.572Z" fill="#D6F0FF"></path><path d="M434.809 232.141L434.779 241.445L391.037 266.985V257.65L434.809 232.141Z" fill="#1B305A"></path><path d="M434.748 233.096L434.717 240.182L390.945 265.691L390.975 258.605L434.748 233.096Z" fill="#7190B4"></path><path d="M391.037 257.65V266.985L359.573 248.747V239.412L391.037 257.65Z" fill="#4B6CCC"></path><path d="M390.976 258.605V265.691L361.048 248.346V241.26L390.976 258.605Z" fill="#E0EBFF"></path><path d="M434.809 232.141L391.037 257.65L359.604 239.443C360.034 239.165 402.916 214.18 403.346 213.933C403.469 213.964 425.355 226.657 434.809 232.141Z" fill="#1652B7"></path><path d="M390.914 239.504C392.48 240.398 392.48 241.876 390.945 242.77C389.41 243.663 386.893 243.663 385.328 242.77L385.266 242.739C383.701 241.846 383.701 240.367 385.236 239.473C386.77 238.58 389.288 238.58 390.853 239.473L390.914 239.504Z" fill="#4B6CCC"></path><path d="M410.805 228.69C415.87 231.617 416.73 235.16 412.094 237.871L412.033 237.902C407.951 240.305 403.438 239.843 399.141 238.395C398.465 238.149 397.575 238.179 396.931 238.457C396.102 238.796 394.997 238.734 394.291 238.333L393.186 237.686C392.449 237.255 392.388 236.608 392.971 236.115L396.777 233.158H397.115C401.719 235.622 404.605 235.961 406.477 234.883L406.539 234.852C408.104 233.928 407.828 232.696 405.771 231.525C404.451 230.755 402.886 230.262 401.013 230.046C400.307 229.954 399.693 229.769 399.233 229.491C398.558 229.091 398.158 228.567 398.22 227.982C398.312 226.75 400.246 225.856 402.302 226.072C405.28 226.349 408.135 227.15 410.805 228.69Z" fill="#4B6CCC"></path><path d="M302.479 286.302C300.207 287.627 300.207 289.722 302.448 291.047L326.238 304.91C328.479 306.204 332.131 306.204 334.372 304.91L371.085 283.653C373.326 282.359 373.356 280.233 371.115 278.939L347.326 265.075C345.085 263.781 341.432 263.781 339.191 265.075L302.479 286.302Z" fill="#D6F0FF"></path><path d="M307.236 287.966C328.079 300.135 328.171 300.567 330.535 300.813C330.842 300.844 331.118 300.875 331.425 300.875C334.28 300.875 334.034 300.567 366.879 281.527C367.646 281.096 368.352 280.325 368.352 279.463C368.352 279.925 368.414 281.65 368.26 282.081C368.076 282.728 367.431 283.314 366.879 283.622C334.218 302.538 334.31 302.97 331.425 302.97C331.118 302.97 330.842 302.939 330.535 302.908C330.443 302.908 330.351 302.877 330.258 302.877C328.202 302.6 329.153 302.846 307.236 290.061C306.285 289.506 305.794 288.767 305.794 288.028V285.933C305.794 286.672 306.285 287.411 307.236 287.966Z" fill="#7190B4"></path><path d="M307.267 283.868C305.303 285.008 305.303 286.857 307.237 287.966L327.926 300.012C329.86 301.152 333.021 301.152 334.986 300.012L366.879 281.527C368.844 280.387 368.844 278.538 366.91 277.429L346.221 265.383C344.287 264.243 341.125 264.243 339.161 265.383L307.267 283.868Z" fill="#8FD6FF"></path><path d="M311.411 284.731C320.804 284.392 330.013 284.053 339.253 283.745C339.866 278.384 340.45 273.024 341.033 267.663L340.91 267.632L311.411 284.731Z" fill="white"></path><path d="M344.717 267.355C344.318 271.052 343.888 274.656 343.489 278.292C349.966 278.169 356.35 278.076 362.889 277.953L344.717 267.355Z" fill="white"></path><path d="M343.274 280.387C343.152 281.465 343.029 282.513 342.906 283.56C342.875 283.899 342.845 284.238 342.783 284.608C342.752 285.008 342.568 285.285 342.261 285.47C341.924 285.655 341.463 285.748 340.788 285.778C338.609 285.871 336.429 285.932 334.25 286.025C334.035 286.025 333.851 286.056 333.636 286.056C333.39 290.153 333.175 294.22 332.96 298.379L364.547 280.079C357.364 280.202 350.334 280.295 343.274 280.387Z" fill="white"></path><path d="M311.228 286.857L329.338 297.424C329.553 293.634 329.768 289.937 329.952 286.21C323.69 286.425 317.52 286.641 311.228 286.857Z" fill="white"></path><path d="M230.098 411.045C280.87 440.467 281.115 488.128 230.682 517.55L221.411 522.972C170.978 552.394 88.9884 552.394 38.217 522.972C-12.5236 493.581 -12.7999 445.89 37.6338 416.468L46.904 411.045C97.3377 381.623 179.358 381.623 230.098 411.045Z" fill="#D6F0FF"></path><path d="M191.697 429.715C191.636 429.746 191.636 429.746 191.605 429.777C190.592 430.609 187.339 431.564 185.405 431.502C177.454 431.964 166.373 414.126 163.426 412C161.247 410.46 155.476 411.045 155.138 411.076C155.875 395.241 156.673 382.825 157.471 373.089C169.842 367.297 165.084 369.546 178.375 363.323C184.146 360.674 185.62 353.187 182.243 352.201C182.427 352.294 182.611 352.417 182.795 352.509C181.967 352.016 181.69 352.016 182.212 352.17C177.516 349.398 166.926 343.205 162.198 340.463C162.198 340.463 162.168 340.463 162.168 340.432C163.825 335.226 165.79 333.963 167.048 331.745C167.048 331.745 167.048 331.714 167.079 331.714C172.696 322.348 155.629 317.449 150.104 306.697C148.385 303.339 152.56 293.943 154.31 290.554C155.722 290.923 181.015 285.532 190.101 289.167C199.187 292.834 200.446 307.375 200.446 307.375C198.85 315.2 192.71 343.606 189.242 351.369C178.191 376.109 173.433 399.276 174.262 406.67C174.538 409.012 175.275 410.953 176.748 412.462C179.265 414.958 192.68 426.85 193.017 427.559C193.017 427.559 193.017 427.559 193.017 427.589C193.171 428.452 192.342 429.469 191.697 429.715Z" fill="#FEB2B2"></path><path d="M169.658 344.869C167.079 343.359 164.562 341.88 162.168 340.494C163.856 335.133 165.667 334.147 166.987 331.806C166.987 331.806 166.987 331.775 167.018 331.775C167.171 331.498 167.447 331.036 167.662 330.574C168.952 335.934 169.535 340.494 169.658 344.869Z" fill="#ED8585"></path><path d="M191.698 429.715C191.667 429.746 191.544 429.808 191.483 429.838C190.009 430.67 187.707 431.286 185.681 431.471C185.651 431.471 185.589 431.471 185.558 431.502C174.078 431.071 175.214 420.627 155.108 411.107C155.845 395.271 156.643 382.886 157.441 373.089L167.509 368.376C166.343 377.064 165.084 387.785 164.716 403.004C164.562 409.412 192.373 426.357 192.956 427.589C192.956 427.589 192.987 427.713 192.987 427.774C193.232 428.544 192.373 429.438 191.698 429.715Z" fill="#ED8585"></path><path d="M201.857 429.469C200.844 433.659 194.46 438.588 187.43 439.512C174.753 441.207 168.092 430.978 164.991 428.668C164.991 428.668 164.991 428.668 164.961 428.668C163.825 427.805 162.167 428.575 162.075 429.838C161.615 436.092 161.952 437.633 159.926 437.756C157.072 437.91 155.199 438.372 154.862 436.678C150.871 416.098 150.748 416.467 154.186 412.185C154.677 411.569 155.568 411.353 156.304 411.631C156.488 411.692 181.291 421.181 181.506 421.212C185.65 422.044 202.717 425.987 201.857 429.469Z" fill="#9E2456"></path><path d="M200.415 307.437C200.17 308.607 197.99 318.959 197.591 320.53C180.033 304.633 179.204 303.401 163.856 298.04C163.672 297.393 161.093 294.312 156.151 290.461C159.958 289.968 168.645 288.459 176.687 288.058C187.922 287.473 193.171 288.582 197.315 296.561C199.893 301.737 200.415 307.437 200.415 307.437Z" fill="#ED8585"></path><path d="M201.857 429.469C200.845 433.659 194.46 438.588 187.43 439.512C174.753 441.207 168.092 430.978 164.991 428.668C170.578 430.547 183.256 434.49 189.733 434.121C195.872 433.751 197.591 428.791 198.082 426.08C200.538 427.158 202.164 428.329 201.857 429.469Z" fill="#5E2456"></path><path d="M187.494 499.219C186.941 498.911 178.561 493.981 177.947 493.827C170.979 492.133 161.985 507.106 166.989 512.621C167.664 513.391 173.158 516.441 176.412 518.351C169.352 514.223 180.004 494.844 187.494 499.219Z" fill="#7CB4F7"></path><path d="M183.135 499.188C187.401 497.463 190.348 500.359 189.704 505.658C189.059 510.957 185.099 516.656 180.802 518.382C176.535 520.107 173.588 517.211 174.233 511.912C174.877 506.613 178.837 500.913 183.135 499.188Z" fill="#3C66DF"></path><path d="M188.936 498.942C188.782 498.849 188.629 498.757 188.475 498.695C188.475 498.695 188.475 498.695 188.445 498.695C188.291 498.633 188.138 498.572 187.984 498.51C187.953 498.51 187.923 498.51 187.892 498.51C187.278 498.356 186.726 498.356 186.204 498.387C186.204 498.387 185.621 498.449 184.884 498.664C184.853 498.664 184.822 498.695 184.792 498.695C181.292 499.804 178.069 503.501 176.412 506.828C176.412 506.828 176.381 506.859 176.381 506.89C176.074 507.506 175.798 508.092 175.552 508.739C175.552 508.739 175.552 508.769 175.552 508.8C175.522 508.862 174.877 510.741 174.938 510.741C174.785 511.357 174.601 512.282 174.57 512.929L163.458 506.49C163.581 505.38 163.765 504.641 163.857 504.302C163.857 504.271 163.857 504.271 163.857 504.271C163.918 503.932 164.379 502.546 164.471 502.361V502.33C165.3 500.359 165.269 500.482 165.269 500.482C165.269 500.482 166.036 498.849 167.479 497.001C167.479 497.001 167.541 496.939 167.541 496.908C169.106 494.967 169.014 495.429 170.334 494.105C170.334 494.105 171.101 493.519 171.777 493.119C172.268 492.811 173.373 492.318 173.68 492.256C173.711 492.256 173.741 492.225 173.772 492.225C173.987 492.164 174.447 492.04 174.447 492.04C174.478 492.04 174.846 491.948 175 491.948C175.061 491.917 175.614 491.917 175.675 491.917C175.706 491.917 175.767 491.917 175.798 491.917C175.89 491.917 175.982 491.917 176.105 491.917C176.135 491.917 176.166 491.917 176.197 491.917C176.228 491.917 176.258 491.917 176.289 491.917L176.78 492.01C176.78 492.01 176.995 492.071 177.302 492.194C177.333 492.194 177.333 492.194 177.333 492.194C177.854 492.472 188.475 498.664 188.936 498.942Z" fill="#1652B7"></path><path d="M191.33 503.193L188.352 504.918C187.155 498.88 178.745 503.686 177.609 511.142L174.601 512.867C175.429 501.283 190.071 492.441 191.33 503.193Z" fill="#0D2458"></path><path d="M65.9679 499.435C65.4154 499.127 57.0353 494.197 56.4214 494.043C49.4534 492.349 40.4595 507.322 45.4629 512.836C46.1382 513.607 51.6328 516.657 54.8866 518.567C47.8265 514.438 58.4781 495.06 65.9679 499.435Z" fill="#7CB4F7"></path><path d="M61.5785 499.404C65.8452 497.679 68.7921 500.575 68.1475 505.874C67.5028 511.173 63.543 516.872 59.2456 518.597C54.9788 520.323 52.032 517.427 52.6766 512.128C53.3519 506.829 57.3117 501.129 61.5785 499.404Z" fill="#3C66DF"></path><path d="M67.4101 499.159C67.2566 499.066 67.1032 498.974 66.9497 498.912C66.9497 498.912 66.9497 498.912 66.919 498.912C66.7655 498.851 66.612 498.789 66.4586 498.727C66.4279 498.727 66.3972 498.727 66.3665 498.727C65.7525 498.573 65.2 498.573 64.6782 498.604C64.6782 498.604 64.095 498.666 63.3582 498.881C63.3275 498.881 63.2969 498.912 63.2662 498.912C59.7668 500.021 56.5437 503.718 54.8861 507.046C54.8861 507.046 54.8554 507.076 54.8554 507.107C54.5485 507.723 54.2722 508.309 54.0266 508.956C54.0266 508.956 54.0266 508.987 54.0266 509.017C53.9959 509.079 53.3513 510.958 53.4127 510.958C53.2592 511.574 53.0751 512.499 53.0444 513.146L41.9324 506.707C42.0552 505.598 42.2393 504.858 42.3314 504.519C42.3314 504.488 42.3314 504.488 42.3314 504.488C42.3928 504.15 42.8533 502.763 42.9453 502.578V502.548C43.7741 500.576 43.7434 500.699 43.7434 500.699C43.7434 500.699 44.5108 499.066 45.9536 497.218C45.9536 497.218 46.015 497.156 46.015 497.125C47.5805 495.153 47.4884 495.646 48.8083 494.322C48.8083 494.322 49.5757 493.736 50.251 493.336C50.7422 493.028 51.8472 492.535 52.1542 492.473C52.1849 492.473 52.2156 492.442 52.2463 492.442C52.4611 492.381 52.9216 492.257 52.9216 492.257C52.9523 492.257 53.3206 492.165 53.4741 492.165C53.5355 492.134 54.088 492.134 54.1494 492.134C54.1801 492.134 54.2415 492.134 54.2722 492.134C54.3643 492.134 54.4564 492.134 54.5792 492.134C54.6099 492.134 54.6406 492.134 54.6713 492.134C54.7019 492.134 54.7326 492.134 54.7633 492.134L55.2545 492.227C55.2545 492.227 55.4694 492.288 55.7763 492.412C55.807 492.412 55.807 492.412 55.807 492.412C56.3288 492.72 66.919 498.912 67.4101 499.159Z" fill="#1652B7"></path><path d="M69.8043 503.409L66.8268 505.134C65.6296 499.096 57.2189 503.902 56.0832 511.357L53.075 513.083C53.9037 501.499 68.5151 492.657 69.8043 503.409Z" fill="#0D2458"></path><path d="M187.494 426.111C186.941 425.803 178.561 420.873 177.947 420.719C170.979 419.025 161.985 433.998 166.989 439.512C167.664 440.282 173.158 443.332 176.412 445.243C169.352 441.114 180.004 421.736 187.494 426.111Z" fill="#7CB4F7"></path><path d="M183.135 426.08C187.401 424.355 190.348 427.251 189.704 432.55C189.059 437.849 185.099 443.548 180.802 445.273C176.535 446.999 173.588 444.103 174.233 438.804C174.877 433.505 178.837 427.805 183.135 426.08Z" fill="#3C66DF"></path><path d="M188.936 425.864C188.782 425.772 188.629 425.679 188.475 425.618C188.475 425.618 188.475 425.618 188.445 425.618C188.291 425.556 188.138 425.494 187.984 425.433C187.953 425.433 187.923 425.433 187.892 425.433C187.278 425.279 186.726 425.279 186.204 425.31C186.204 425.31 185.621 425.371 184.884 425.587C184.853 425.587 184.822 425.618 184.792 425.618C181.292 426.727 178.069 430.424 176.412 433.751C176.412 433.751 176.381 433.782 176.381 433.813C176.074 434.429 175.798 435.014 175.552 435.661C175.552 435.661 175.552 435.692 175.552 435.723C175.522 435.784 174.877 437.664 174.938 437.664C174.785 438.28 174.601 439.204 174.57 439.851L163.458 433.412C163.581 432.303 163.765 431.564 163.857 431.225C163.857 431.194 163.857 431.194 163.857 431.194C163.918 430.855 164.379 429.469 164.471 429.284V429.253C165.3 427.281 165.269 427.405 165.269 427.405C165.269 427.405 166.036 425.772 167.479 423.923C167.479 423.923 167.541 423.862 167.541 423.831C169.106 421.89 169.014 422.352 170.334 421.027C170.334 421.027 171.101 420.442 171.777 420.041C172.268 419.733 173.373 419.24 173.68 419.179C173.711 419.179 173.741 419.148 173.772 419.148C173.987 419.086 174.447 418.963 174.447 418.963C174.478 418.963 174.846 418.871 175 418.871C175.061 418.84 175.614 418.84 175.675 418.84C175.706 418.84 175.767 418.84 175.798 418.84C175.89 418.84 175.982 418.84 176.105 418.84C176.135 418.84 176.166 418.84 176.197 418.84C176.228 418.84 176.258 418.84 176.289 418.84L176.78 418.932C176.78 418.932 176.995 418.994 177.302 419.117C177.333 419.117 177.333 419.117 177.333 419.117C177.854 419.394 188.475 425.587 188.936 425.864Z" fill="#1652B7"></path><path d="M191.33 430.085L188.352 431.81C187.155 425.772 178.745 430.578 177.609 438.034L174.601 439.759C175.429 428.175 190.071 419.333 191.33 430.085Z" fill="#0D2458"></path><path d="M65.9679 426.326C65.4154 426.018 57.0353 421.089 56.4214 420.935C49.4534 419.241 40.4595 434.213 45.4629 439.728C46.1382 440.498 51.6328 443.548 54.8866 445.458C47.8265 441.33 58.4781 421.952 65.9679 426.326Z" fill="#7CB4F7"></path><path d="M61.5785 426.296C65.8452 424.57 68.7921 427.466 68.1475 432.765C67.5028 438.065 63.543 443.764 59.2456 445.489C54.9788 447.215 52.032 444.319 52.6766 439.02C53.3519 433.721 57.3117 428.021 61.5785 426.296Z" fill="#3C66DF"></path><path d="M67.4101 426.081C67.2566 425.989 67.1032 425.896 66.9497 425.835C66.9497 425.835 66.9497 425.835 66.919 425.835C66.7655 425.773 66.612 425.712 66.4586 425.65C66.4279 425.65 66.3972 425.65 66.3665 425.65C65.7525 425.496 65.2 425.496 64.6782 425.527C64.6782 425.527 64.095 425.588 63.3582 425.804C63.3275 425.804 63.2969 425.835 63.2662 425.835C59.7668 426.944 56.5437 430.641 54.8861 433.968C54.8861 433.968 54.8554 433.999 54.8554 434.03C54.5485 434.646 54.2722 435.231 54.0266 435.878C54.0266 435.878 54.0266 435.909 54.0266 435.94C53.9959 436.002 53.3513 437.881 53.4127 437.881C53.2592 438.497 53.0751 439.421 53.0444 440.068L41.9324 433.629C42.0552 432.52 42.2393 431.781 42.3314 431.442C42.3314 431.411 42.3314 431.411 42.3314 431.411C42.3928 431.072 42.8533 429.686 42.9453 429.501V429.47C43.7741 427.498 43.7434 427.622 43.7434 427.622C43.7434 427.622 44.5108 425.989 45.9536 424.14C45.9536 424.14 46.015 424.079 46.015 424.048C47.5805 422.107 47.4884 422.569 48.8083 421.244C48.8083 421.244 49.5757 420.659 50.251 420.258C50.7422 419.95 51.8472 419.457 52.1542 419.396C52.1849 419.396 52.2156 419.365 52.2463 419.365C52.4611 419.303 52.9216 419.18 52.9216 419.18C52.9523 419.18 53.3206 419.088 53.4741 419.088C53.5355 419.057 54.088 419.057 54.1494 419.057C54.1801 419.057 54.2415 419.057 54.2722 419.057C54.3643 419.057 54.4564 419.057 54.5792 419.057C54.6099 419.057 54.6406 419.057 54.6713 419.057C54.7019 419.057 54.7326 419.057 54.7633 419.057L55.2545 419.149C55.2545 419.149 55.4694 419.211 55.7763 419.334C55.807 419.334 55.807 419.334 55.807 419.334C56.3288 419.611 66.919 425.804 67.4101 426.081Z" fill="#1652B7"></path><path d="M69.8043 430.301L66.8268 432.026C65.6296 425.988 57.2189 430.794 56.0832 438.249L53.075 439.974C53.9037 428.421 68.5151 419.549 69.8043 430.301Z" fill="#0D2458"></path><path d="M105.842 436.031L110.661 439.173L110.631 447.522L105.811 444.38C89.1128 433.535 69.8356 427.374 49.9446 426.511L49.9753 418.162C69.8663 419.025 89.1435 425.186 105.842 436.031Z" fill="#7CB4F7"></path><path d="M56.7589 500.79L50.0058 496.847L49.9751 488.498L56.7282 492.441L56.7589 500.79Z" fill="#F1F2F2"></path><path d="M117.445 451.466L105.627 457.504C93.3796 463.758 82.3904 472.231 73.1816 482.49L56.7592 500.821L56.7285 492.472L73.1509 474.141C82.329 463.882 93.3489 455.409 105.597 449.155L117.415 443.117L117.445 451.466Z" fill="#3C66DF"></path><path d="M56.7589 500.79L50.0058 496.847L49.9751 488.498L56.7282 492.441L56.7589 500.79Z" fill="#7CB4F7"></path><path d="M184.824 418.162H184.854L184.885 426.511C165.025 427.374 145.748 433.535 129.049 444.38L124.23 447.522L124.199 439.173L129.049 436.031C145.717 425.186 164.963 419.025 184.824 418.162Z" fill="#3C66DF"></path><path d="M178.131 500.79L184.885 496.847L184.915 488.497L178.162 492.441L178.131 500.79Z" fill="#F1F2F2"></path><path d="M184.915 488.498L178.162 492.441L161.739 474.11C152.53 463.851 141.541 455.379 129.263 449.125L117.475 443.117H117.445L105.627 449.155C93.3789 455.409 82.3897 463.882 73.1809 474.141L56.7585 492.472L50.0054 488.528L66.4278 470.197C75.6059 459.938 86.6258 451.497 98.8735 445.243L110.692 439.204L105.872 436.093C89.1736 425.248 69.8964 419.086 50.0054 418.224L56.7585 414.28C76.6189 415.143 95.896 421.305 112.595 432.149L117.414 435.292L122.264 432.149C138.963 421.335 158.209 415.174 178.069 414.28H178.1L184.853 418.224C164.993 419.086 145.685 425.248 128.986 436.093L124.167 439.204H124.198L136.016 445.243C148.264 451.497 159.253 459.969 168.462 470.228L184.915 488.498Z" fill="#1652B7"></path><path d="M129.263 449.124L117.445 443.086L117.414 451.435L129.232 457.474C141.48 463.728 152.469 472.2 161.647 482.428L178.1 500.759L178.131 492.41L161.708 474.079C152.53 463.851 141.541 455.379 129.263 449.124Z" fill="#7CB4F7"></path><path d="M178.131 500.79L184.885 496.847L184.915 488.497L178.162 492.441L178.131 500.79Z" fill="#0D2458"></path><path d="M124.013 409.351L123.86 439.42C123.86 440.436 123.185 441.453 121.865 442.223C119.194 443.764 114.866 443.764 112.165 442.223C110.814 441.453 110.139 440.406 110.139 439.389L110.292 409.32C110.292 410.337 110.967 411.384 112.318 412.154C116.646 414.65 123.983 412.863 124.013 409.351Z" fill="#0D2458"></path><path d="M121.988 406.486C124.689 408.057 124.689 410.583 122.018 412.124C119.348 413.664 115.02 413.664 112.318 412.124C109.648 410.583 109.617 408.057 112.288 406.486C114.958 404.945 119.286 404.945 121.988 406.486Z" fill="#CCCCCC"></path><path d="M207.107 368.191C121.404 318.22 124.013 319.544 123.03 319.483C119.255 319.236 64.4009 354.204 54.0256 357.87C41.6858 362.245 34.5029 354.358 33.2137 357.038C28.9162 366.127 114.773 405.839 117.996 406.763C135.002 411.569 138.532 406.208 203.516 368.53C204.651 367.913 206.002 367.575 207.107 368.191Z" fill="#5E2456"></path><path d="M109.095 417.7C102.188 413.664 98.0443 406.578 96.0491 398.784C93.6548 389.418 94.4836 387.138 94.2073 290.554L11.2665 242.185C11.5428 342.928 9.14846 349.983 18.8177 362.738C23.1152 368.407 19.5544 365.48 109.095 417.7Z" fill="url(#paint0_linear_6_351)"></path><path d="M102.741 281.527C16.8839 231.432 19.6466 232.85 18.6643 232.819C18.4187 232.819 18.2039 232.819 18.2039 232.819C14.8273 233.127 11.2359 238.18 11.2666 242.185L94.2074 290.554C94.1767 285.44 99.6406 279.709 102.741 281.527Z" fill="#F37060"></path><path d="M205.756 378.358C205.142 379.035 204.406 379.621 203.577 380.114L177.025 395.518L161.339 404.606L144.733 414.218C117.106 430.239 94.5751 417.361 94.4831 385.505L94.2068 290.585C94.2068 287.38 96.4476 283.499 99.2102 281.897C101.973 280.295 104.214 281.588 104.244 284.762L104.459 358.702L104.521 379.682C104.521 385.135 105.38 389.88 106.884 393.854C112.471 408.519 127.359 412.74 144.733 402.696L162.352 392.499L180.34 382.085L203.577 368.622C203.945 368.406 204.283 368.252 204.59 368.129C209.348 366.281 209.87 373.89 205.756 378.358Z" fill="#9E2456"></path><path d="M188.475 357.346C177.026 350.661 167.571 345.146 159.805 340.617C159.283 319.483 158.976 296.192 160.082 293.296C162.107 288.027 188.844 286.733 191.115 288.705C194.031 291.201 195.965 295.421 196.641 298.872C201.398 316.741 195.29 337.352 188.475 357.346Z" fill="#DE786E"></path><path d="M221.35 451.62C221.289 451.65 221.289 451.681 221.258 451.681C220.337 452.606 217.237 453.807 215.303 453.807C207.568 454.639 195.443 435.723 192.404 433.535C190.163 431.964 184.546 432.827 184.239 432.888C183.84 415.666 183.717 402.172 183.809 391.543C195.504 384.765 191.023 387.384 203.547 380.113C208.98 377.002 209.931 368.807 206.524 367.913C206.708 368.006 206.892 368.129 207.077 368.221C206.248 367.728 205.941 367.759 206.493 367.883C201.705 365.079 190.9 358.794 186.08 355.96C186.08 355.96 186.05 355.96 186.05 355.929C187.308 350.199 189.119 348.751 190.194 346.317C190.194 346.317 190.194 346.286 190.224 346.286C195.044 335.873 178.007 331.282 171.837 319.821C169.934 316.248 173.342 305.896 174.784 302.137C176.196 302.507 200.569 295.606 209.716 299.18C218.864 302.784 221.135 318.528 221.135 318.528C220.122 327.061 216.163 358.178 213.308 366.712C204.253 394.008 201.275 419.332 202.595 427.343C203.025 429.869 203.884 431.964 205.45 433.535C208.09 436.154 222.056 448.508 222.455 449.278C222.455 449.278 222.455 449.278 222.455 449.309C222.701 450.172 221.964 451.312 221.35 451.62Z" fill="#FEB2B2"></path><path d="M193.755 360.396C191.115 358.856 188.567 357.377 186.112 355.929C187.37 350.045 189.089 348.905 190.225 346.286C190.225 346.286 190.225 346.255 190.256 346.255C190.409 345.947 190.624 345.423 190.808 344.931C192.435 350.723 193.294 355.652 193.755 360.396Z" fill="#ED8585"></path><path d="M221.35 451.62C221.32 451.651 221.228 451.743 221.166 451.774C219.785 452.729 217.575 453.499 215.61 453.776C215.579 453.776 215.549 453.776 215.487 453.807C204.222 453.807 204.59 442.408 184.239 432.888C183.84 415.666 183.717 402.172 183.809 391.543L193.325 386.029C192.803 395.518 192.312 407.225 193.079 423.707C193.386 430.67 221.811 447.954 222.455 449.278C222.455 449.278 222.517 449.402 222.517 449.494C222.762 450.295 221.995 451.312 221.35 451.62Z" fill="#ED8585"></path><path d="M231.265 450.911C230.559 455.502 224.666 461.109 217.882 462.372C205.603 464.714 198.359 453.9 195.167 451.497C195.167 451.497 195.167 451.497 195.136 451.497C193.939 450.603 192.404 451.497 192.404 452.883C192.404 459.692 192.864 461.355 190.869 461.571C188.076 461.879 186.295 462.434 185.835 460.616C180.463 438.465 180.371 438.865 183.441 434.059C183.87 433.381 184.73 433.073 185.467 433.381C185.651 433.443 210.576 442.747 210.791 442.778C214.874 443.517 231.879 447.122 231.265 450.911Z" fill="#9E2456"></path><path d="M221.136 318.528C220.952 319.822 219.601 331.128 219.294 332.854C200.969 316.31 200.079 315.016 184.7 309.809C184.454 309.131 181.753 305.896 176.627 301.922C180.31 301.213 188.721 299.272 196.548 298.471C207.507 297.362 212.695 298.379 217.36 306.882C220.246 312.366 221.136 318.528 221.136 318.528Z" fill="#ED8585"></path><path d="M231.265 450.911C230.559 455.502 224.665 461.109 217.881 462.372C205.603 464.713 198.358 453.9 195.166 451.497C200.753 453.314 213.461 457.073 219.754 456.395C225.709 455.748 227.059 450.264 227.335 447.338C229.822 448.477 231.479 449.679 231.265 450.911Z" fill="#5E2456"></path><path d="M193.755 327.709C193.417 347.272 189.918 343.02 176.995 351.677C144.027 371.056 127.635 382.178 110.384 383.78C110.231 383.78 110.108 383.811 109.985 383.811C109.525 383.841 109.034 383.903 108.542 383.903C107.253 383.965 105.964 383.965 104.675 383.903C104.552 382.547 104.491 381.13 104.491 379.651C104.491 379.651 104.306 320.592 104.276 301.152C135.463 294.282 109.402 303.493 159.59 291.601C159.406 291.663 179.635 304.017 179.819 304.109C189.273 310.179 193.878 319.637 193.755 327.709Z" fill="#2ED47A"></path><path d="M184.7 309.809C170.488 305.003 150.044 300.074 135.433 296.869C146.115 294.929 159.406 291.663 159.406 291.663C171.286 296.561 183.84 307.252 184.7 309.809Z" fill="#009745"></path><path d="M190.808 343.883C190.255 344.653 185.651 346.841 177.117 351.616C157.042 361.66 132.608 381.254 110.384 383.78C110.231 383.78 110.108 383.811 109.985 383.811C108.082 383.996 106.332 384.088 104.705 384.088C104.675 384.026 104.675 383.965 104.675 383.934C104.552 382.578 104.491 381.161 104.491 379.682C104.368 335.688 104.429 353.927 104.276 307.19C105.319 307.868 117.168 315.17 124.259 319.421C122.356 323.642 117.536 331.221 120.299 336.674C122.079 340.186 133.744 343.791 130.03 348.073C125.794 353.002 114.037 357.901 122.202 361.505C127.451 363.816 148.232 354.758 163.58 347.118C172.083 342.866 190.931 330.697 192.588 333.285C193.417 334.487 191.667 342.774 190.808 343.883Z" fill="#0CB75A"></path><path d="M185.773 197.482C185.958 197.759 187.707 201.487 185.497 201.302C183.287 201.117 182.489 198.005 181.507 196.773C180.555 195.51 185.773 197.482 185.773 197.482Z" fill="#ED8585"></path><path d="M181.445 196.65C181.537 196.958 181.936 201.086 179.91 200.162C177.884 199.238 178.191 196.034 177.669 194.555C177.178 193.045 181.445 196.65 181.445 196.65Z" fill="#ED8585"></path><path d="M153.113 206.17C155.814 205.615 155.783 206.693 156.919 210.082C158.546 214.95 158.976 217.784 168.092 211.777C174.201 207.618 182.519 210.668 185.313 207.464C185.927 206.755 186.541 205.523 186.08 204.845C184.914 203.089 178.652 206.539 176.963 203.243C176.319 202.01 179.143 198.313 182.519 198.005C186.694 197.636 187.615 200.963 189.948 201.548C191.36 201.918 195.166 201.795 192.618 199.238C188.781 195.294 183.318 191.936 179.757 189.81C175.091 187.469 172.451 185.436 165.33 193.107C161.493 197.42 161.677 198.622 158.484 201.548C156.581 203.335 152.222 206.632 153.113 206.17Z" fill="#FEB2B2"></path><path d="M156.06 203.612C157.196 203.89 159.805 202.935 160.511 204.044C161.37 205.43 164.256 210.113 166.313 212.886C168.308 211.684 169.167 210.729 172.206 209.897C171.838 203.428 163.089 204.352 165.33 193.076C160.757 198.221 161.862 199.022 156.06 203.612Z" fill="#ED8585"></path><path d="M175.428 191.443C176.226 191.505 176.533 191.32 177.546 191.258C177.7 191.258 181.936 191.443 182.642 191.474C181.967 191.073 181.168 190.611 180.063 189.995C170.732 190.58 173.863 191.32 175.428 191.443Z" fill="#ED8585"></path><path d="M128.74 214.95L136.414 228.383C136.414 228.413 136.445 228.413 136.445 228.444L138.839 232.665C151.24 224.655 167.11 214.303 168.184 211.592C168.215 211.592 168.215 211.592 168.215 211.592C170.303 206.601 160.971 199.546 160.081 199.546C159.313 199.546 141.111 208.696 132.792 212.886H132.761C130.336 214.149 128.74 214.95 128.74 214.95Z" fill="url(#paint1_linear_6_351)"></path><path d="M128.74 214.95L136.414 228.382C136.414 228.475 137.396 229.584 137.458 229.645C138.471 230.693 139.422 231.309 140.343 231.679C145.408 228.413 167.018 214.549 168.215 211.592C164.654 212.27 154.832 217.661 149.613 217.877C145.193 218.062 137.151 214.765 132.823 212.917H132.792C130.336 214.149 128.74 214.95 128.74 214.95Z" fill="#0063AA"></path><path d="M133.775 265.137C128.955 274.965 127.175 283.221 126.469 289.044C125.886 293.727 125.763 298.256 125.763 298.256C124.688 316.648 126.315 320.315 121.957 322.04C116.493 324.135 110.2 325.49 104.306 324.782C104.183 282.574 104.797 282.328 102.526 281.404C88.7434 273.363 77.263 266.646 67.6858 261.07C65.3836 249.178 64.34 253.337 60.5643 238.765C57.3106 226.195 54.9777 205.985 61.1169 196.927C66.151 189.471 77.9076 191.751 82.6348 193.076C82.7269 193.076 84.0469 193.446 84.6301 193.661C90.5237 199.577 95.9262 203.366 103.232 202.411C112.778 200.901 107.867 197.79 116.001 205.122C119.746 208.634 128.403 211.407 131.165 214.18C131.165 214.18 131.196 214.18 131.257 214.211C144.856 230.601 144.058 250.164 133.775 265.137Z" fill="url(#paint2_linear_6_351)"></path><path d="M120.268 208.049C108.757 218.585 71.6144 215.32 82.757 192.922C82.8798 192.676 80.8846 198.406 83.463 202.75C86.901 208.573 99.9469 212.855 109.033 199.299C109.892 199.916 119.347 207.556 120.268 208.049Z" fill="#0063AA"></path><path d="M129.937 279.278C126.1 290.831 124.596 307.498 124.872 319.637C124.872 319.637 124.412 320.16 123.399 321.3V321.331C123.368 321.331 123.123 321.516 123.092 321.547H123.061C121.649 322.687 110.261 325.305 109.064 325.305C121.618 276.967 113.208 262.302 114.405 241.538C114.957 232.141 116.83 220.126 125.118 215.72C123.736 216.706 121.895 218.308 121.189 220.773C118.15 231.248 142.246 239.781 142.369 254.847C142.4 262.919 135.524 262.395 129.937 279.278Z" fill="#0063AA"></path><path d="M216.593 223.792C216.378 223.515 216.009 223.361 215.702 223.361C214.29 223.237 211.927 228.013 210.914 229.153C209.41 230.909 207.384 231.833 207.322 231.71C207.322 231.71 209.655 229.43 211.19 227.427C212.725 225.332 215.396 220.095 214.444 218.308C213.922 217.507 212.786 216.952 212.203 217.322C211.62 217.599 211.712 218.431 211.466 219.51C210.853 222.868 207.998 226.072 205.082 227.797C208.919 223.515 210.147 218.246 209.041 213.194C206.064 212.054 207.353 216.151 205.818 219.787C204.959 221.882 202.104 225.394 198.82 227.458C191.76 231.648 197.622 225.486 196.456 221.204C196.149 219.91 195.105 218.37 194.369 218.524C193.755 218.647 193.294 220.064 192.435 222.96C191.76 225.61 191.667 226.842 185.467 238.457C185.344 238.611 185.313 238.765 185.191 238.919V238.95C184.792 239.627 183.594 241.784 183.195 242.554C183.564 243.448 187.585 253.368 188.506 253.091C188.506 253.06 188.536 253.06 188.567 252.998C189.58 250.965 198.543 247.175 206.309 241.722C212.664 238.179 215.61 237.194 215.61 230.323C215.58 229.43 215.426 228.783 215.303 228.413C215.488 227.982 215.672 227.581 215.917 227.119C215.887 227.088 215.917 227.088 215.917 227.088C216.071 226.873 216.132 226.626 216.224 226.472C216.224 226.441 216.224 226.441 216.224 226.441C216.9 224.963 216.93 224.254 216.593 223.792ZM210.3 235.099C210.208 235.099 212.786 232.172 212.848 232.11C212.326 233.404 211.436 234.328 210.3 235.099Z" fill="#FEB2B2"></path><path d="M183.227 242.523C184.24 245.019 185.253 247.329 186.082 249.147C187.617 250.102 189.059 250.934 190.103 251.581C195.199 247.915 201.061 245.327 206.28 241.753C202.965 240.459 199.22 239.997 195.72 239.535C194.738 239.412 185.836 237.779 185.468 238.457C184.793 239.72 184.056 241.075 183.227 242.523Z" fill="#ED8585"></path><path d="M210.269 235.129C210.239 235.222 210.239 235.314 210.269 235.345C210.392 235.591 211.16 235.345 211.804 235.129C213.646 233.774 215.211 231.001 215.304 228.413C215.518 228.013 215.733 227.612 215.948 227.15C215.948 227.119 215.979 227.119 215.979 227.119C215.979 227.119 214.291 230.292 212.879 232.11C212.203 233.589 211.405 234.39 210.269 235.129C210.3 235.129 210.3 235.129 210.269 235.129Z" fill="#ED8585"></path><path d="M199.587 247.423C193.786 255.68 165.914 297.456 155.845 293.975C151.21 292.342 119.409 251.983 118.826 231.526C118.826 223.146 123.4 213.965 128.035 213.226C135.064 212.086 150.811 241.477 158.148 264.46C158.485 264.676 160.081 265.6 160.419 265.785C160.91 264.583 177.21 242.956 185.866 237.595C196.641 238.55 199.587 247.423 199.587 247.423Z" fill="url(#paint3_linear_6_351)"></path><path d="M157.196 274.78C159.744 272.962 160.419 268.372 160.634 265.445C160.481 265.661 160.388 265.784 160.388 265.784L158.332 264.613C158.025 269.512 157.196 274.78 157.196 274.78Z" fill="#0063AA"></path><path d="M126.039 170.001C124.75 171.88 123.461 173.728 122.172 175.608C121.343 179.674 120.514 183.71 119.685 187.746C114.191 189.502 108.205 189.687 105.258 189.04C101.912 188.516 98.7812 187.284 96.2948 185.127C81.929 172.743 92.0894 133.339 124.044 142.027C124.842 147.973 124.627 154.073 123.277 160.08C124.167 163.377 125.088 166.704 126.039 170.001Z" fill="#FEB2B2"></path><path d="M124.075 155.336C123.369 154.812 122.54 153.241 121.036 153.333C119.962 153.426 118.09 153.426 114.406 165.164C113.24 168.891 112.595 170.771 112.503 171.479C112.165 175.115 112.319 182.016 116.371 188.609C110.231 189.903 106.548 189.194 105.259 189.04C101.053 184.819 97.0934 173.482 95.8962 165.78C101.022 155.089 117.169 140.856 124.259 149.575C124.597 151.146 124.259 153.765 124.075 155.336Z" fill="#ED8585"></path><path d="M124.781 210.267C123.891 210.205 122.724 209.466 121.558 209.404C92.3657 208.419 92.2429 215.166 78.6753 196.835C61.4241 173.513 68.3 141.01 74.0402 132.815C80.4863 123.511 99.1496 119.198 104.706 121.231C105.903 121.662 107.744 122.463 109.126 123.172C113.239 125.267 121.987 127.978 123.492 140.794C124.566 149.759 125.272 150.653 124.566 153.056C124.412 153.518 124.382 153.888 124.382 154.103C124.259 153.641 123.891 152.779 122.878 151.577C120.299 148.527 122.294 146.586 118.365 153.179C114.436 159.741 113.792 163.654 111.336 167.474C108.85 171.294 111.643 164.486 111.428 161.713C111.397 161.405 111.336 161.005 111.152 160.943C110.661 160.82 109.678 162.761 108.88 164.517C107.069 165.718 104.583 167.721 103.079 170.925C102.987 171.14 103.355 172.681 103.048 173.821C101.82 178.658 104.552 183.988 107.53 187.962C112.779 194.955 119.286 194.986 124.781 210.267Z" fill="#FFBC52"></path><path d="M120.023 143.105C119.501 148.188 114.59 152.994 110.6 152.717C109.003 152.625 108.881 151.762 106.885 151.608C103.355 151.331 100.593 153.672 99.8252 154.35C98.0448 155.983 97.3388 157.739 96.4486 159.988C94.2999 165.472 94.791 169.415 94.0543 169.477C93.379 169.539 92.0591 166.304 92.1205 162.884C92.2126 159.618 93.5939 155.059 93.7167 154.689C94.2385 152.964 94.6682 151.978 94.2078 151.485C93.5018 150.715 91.2303 151.516 89.7262 152.501C85.9812 154.905 85.2138 159.218 84.5999 159.064C83.679 158.817 85.6436 149.606 84.4464 149.236C83.7097 149.02 81.561 152.101 81.1313 152.748C78.43 156.691 76.6189 162.946 75.299 162.915C73.6107 162.853 70.1421 149.698 76.5882 137.005C78.5835 132.137 81.5303 129.95 86.0426 127.67C92.7344 124.312 98.4132 122.433 105.596 124.62C116.862 128.07 120.453 138.761 120.023 143.105Z" fill="#FFAB26"></path><path d="M108.205 163.654L107.868 163.469C102.373 167.413 98.8122 173.944 103.11 179.459C103.202 179.828 103.294 180.167 103.417 180.537C92.2739 175.7 95.8654 161.066 104.737 155.274C102.741 141.688 91.1075 130.874 76.7417 131.274C87.823 124.189 108.727 140.609 108.205 163.654Z" fill="#DB8F16"></path><path d="M100.162 166.889C101.942 159.526 108.112 154.011 113.116 155.921C99.763 150.869 92.9178 175.053 102.648 178.781L104.275 179.397C99.8244 177.703 99.0263 171.603 100.162 166.889Z" fill="#3E3895"></path><path d="M107.13 156.692C112.041 153.857 116.707 156.445 117.566 162.514C118.426 168.584 115.141 175.793 110.261 178.627C105.349 181.462 100.683 178.843 99.8239 172.804C98.9645 166.735 102.249 159.526 107.13 156.692Z" fill="#292562"></path><path d="M113.392 158.694C112.011 158.17 111.55 157.924 110.752 157.862C102.587 156.969 97.0923 173.975 104.828 176.932L106.332 177.518C98.136 174.375 105.073 155.521 113.392 158.694Z" fill="#FF8900"></path><path d="M108.358 159.218C112.287 156.938 116.001 159.033 116.707 163.87C117.382 168.707 114.773 174.468 110.844 176.748C106.915 179.027 103.201 176.932 102.495 172.095C101.819 167.259 104.428 161.467 108.358 159.218Z" fill="#F13F00"></path><path d="M129.324 180.968L126.899 180.044L137.059 177.98L139.515 178.904L129.324 180.968Z" fill="#F13F00"></path><path d="M114.098 182.817L111.642 181.893L109.279 174.314L111.735 175.238L114.098 182.817Z" fill="#3E3895"></path><path d="M111.734 175.238C108.665 174.067 110.046 174.807 105.472 171.849C108.572 173.051 107.16 172.311 111.734 175.238Z" fill="#3E3895"></path><path d="M116.584 162.453C118.15 173.451 117.874 170.494 117.935 175.947L129.354 180.968L139.514 178.904L139.545 180.167L129.569 184.08L114.098 182.817L111.734 175.238L107.928 172.804C104.858 166.827 110.2 162.083 116.584 162.453Z" fill="#292562"></path><path d="M116.431 167.875C116.154 167.782 115.418 167.474 115.141 167.443C112.44 167.012 109.77 172.157 111.734 174.622C112.225 175.238 112.747 175.33 113.514 175.608C110.107 174.283 112.993 166.55 116.431 167.875Z" fill="#FF8900"></path><path d="M117.904 170.031C118.579 174.868 112.747 178.134 112.072 173.42C111.366 168.583 117.229 165.318 117.904 170.031Z" fill="#F13F00"></path><path d="M106.455 162.637L112.165 160.481L113.914 161.467L108.205 163.654L106.455 162.637Z" fill="#292562"></path><path d="M111.55 167.659L117.26 165.503C116.953 145.169 104.674 123.665 84.7524 124.527C79.9331 126.715 77.3239 128.841 75.0217 130.997C77.3546 130.011 82.6651 127.886 88.5894 129.364C97.7982 131.613 110.721 145.878 111.55 167.659Z" fill="#292562"></path><path d="M111.551 167.659C111.489 166.55 108.573 166.92 107.898 168.121C106.67 170.309 107.836 172.619 107.928 172.804L105.473 171.88C104.429 168.83 104.767 165.441 106.455 162.637C106.977 162.946 107.713 163.346 108.174 163.654C108.819 135.249 77.3244 117.226 71.0317 139.839C70.9089 140.116 70.5405 141.102 70.3871 141.38L69.7424 141.072C78.3066 110.602 112.195 137.467 111.551 167.659Z" fill="#3E3895"></path><path d="M115.91 160.142C115.756 160.08 115.327 159.895 115.173 159.895C113.608 159.649 112.042 162.637 113.209 164.085C113.485 164.424 113.792 164.486 114.252 164.671C112.196 163.901 113.884 159.403 115.91 160.142Z" fill="#FF8900"></path><path d="M116.77 161.436C117.169 164.239 113.762 166.149 113.363 163.408C112.963 160.573 116.371 158.663 116.77 161.436Z" fill="#F13F00"></path></g><defs><linearGradient id="paint0_linear_6_351" x1="60.46" y1="488.32" x2="59.7455" y2="215.689" gradientUnits="userSpaceOnUse"><stop stop-color="#D33073"></stop><stop offset="1" stop-color="#FE405A"></stop></linearGradient><linearGradient id="paint1_linear_6_351" x1="128.75" y1="216.109" x2="168.529" y2="216.109" gradientUnits="userSpaceOnUse"><stop stop-color="#109CF1"></stop><stop offset="1" stop-color="#1E70FA"></stop></linearGradient><linearGradient id="paint2_linear_6_351" x1="94.8325" y1="280.922" x2="110.977" y2="93.043" gradientUnits="userSpaceOnUse"><stop stop-color="#109CF1"></stop><stop offset="1" stop-color="#1E70FA"></stop></linearGradient><linearGradient id="paint3_linear_6_351" x1="118.845" y1="253.671" x2="199.593" y2="253.671" gradientUnits="userSpaceOnUse"><stop stop-color="#109CF1"></stop><stop offset="1" stop-color="#1E70FA"></stop></linearGradient><clipPath id="clip0_6_351"><rect width="594" height="545" fill="white"></rect></clipPath></defs></svg> 