<?xml version="1.0" encoding="UTF-8"?> <svg xmlns="http://www.w3.org/2000/svg" width="211" height="50" viewBox="0 0 211 50" fill="none"><path d="M59.126 8.556V24H55.364V8.556H59.126Z" fill="#109CF1"></path><path d="M68.6943 20.81V24H66.7803C65.4163 24 64.353 23.67 63.5903 23.01C62.8276 22.3353 62.4463 21.2427 62.4463 19.732V14.848H60.9503V11.724H62.4463V8.732H66.2083V11.724H68.6723V14.848H66.2083V19.776C66.2083 20.1427 66.2963 20.4067 66.4723 20.568C66.6483 20.7293 66.9416 20.81 67.3523 20.81H68.6943Z" fill="#109CF1"></path><path d="M75.7838 24.176C74.7131 24.176 73.7598 23.9927 72.9238 23.626C72.0878 23.2593 71.4278 22.7607 70.9438 22.13C70.4598 21.4847 70.1885 20.766 70.1298 19.974H73.8478C73.8918 20.3993 74.0898 20.744 74.4418 21.008C74.7938 21.272 75.2265 21.404 75.7398 21.404C76.2091 21.404 76.5685 21.316 76.8178 21.14C77.0818 20.9493 77.2138 20.7073 77.2138 20.414C77.2138 20.062 77.0305 19.8053 76.6638 19.644C76.2971 19.468 75.7031 19.2773 74.8818 19.072C74.0018 18.8667 73.2685 18.654 72.6818 18.434C72.0951 18.1993 71.5891 17.84 71.1638 17.356C70.7385 16.8573 70.5258 16.19 70.5258 15.354C70.5258 14.65 70.7165 14.012 71.0978 13.44C71.4938 12.8533 72.0658 12.3913 72.8138 12.054C73.5765 11.7167 74.4785 11.548 75.5198 11.548C77.0598 11.548 78.2698 11.9293 79.1498 12.692C80.0445 13.4547 80.5578 14.4667 80.6898 15.728H77.2138C77.1551 15.3027 76.9645 14.9653 76.6418 14.716C76.3338 14.4667 75.9231 14.342 75.4098 14.342C74.9698 14.342 74.6325 14.43 74.3978 14.606C74.1631 14.7673 74.0458 14.9947 74.0458 15.288C74.0458 15.64 74.2291 15.904 74.5958 16.08C74.9771 16.256 75.5638 16.432 76.3558 16.608C77.2651 16.8427 78.0058 17.0773 78.5778 17.312C79.1498 17.532 79.6485 17.8987 80.0738 18.412C80.5138 18.9107 80.7411 19.5853 80.7558 20.436C80.7558 21.1547 80.5505 21.8 80.1398 22.372C79.7438 22.9293 79.1645 23.3693 78.4018 23.692C77.6538 24.0147 76.7811 24.176 75.7838 24.176Z" fill="#109CF1"></path><path d="M86.9715 17.84C86.9715 16.5787 87.2062 15.4713 87.6755 14.518C88.1595 13.5647 88.8122 12.8313 89.6335 12.318C90.4548 11.8047 91.3715 11.548 92.3835 11.548C93.2488 11.548 94.0041 11.724 94.6495 12.076C95.3095 12.428 95.8155 12.89 96.1675 13.462V11.724H99.9295V24H96.1675V22.262C95.8008 22.834 95.2875 23.296 94.6275 23.648C93.9822 24 93.2268 24.176 92.3615 24.176C91.3642 24.176 90.4548 23.9193 89.6335 23.406C88.8122 22.878 88.1595 22.1373 87.6755 21.184C87.2062 20.216 86.9715 19.1013 86.9715 17.84ZM96.1675 17.862C96.1675 16.9233 95.9035 16.1827 95.3755 15.64C94.8622 15.0973 94.2315 14.826 93.4835 14.826C92.7355 14.826 92.0975 15.0973 91.5695 15.64C91.0562 16.168 90.7995 16.9013 90.7995 17.84C90.7995 18.7787 91.0562 19.5267 91.5695 20.084C92.0975 20.6267 92.7355 20.898 93.4835 20.898C94.2315 20.898 94.8622 20.6267 95.3755 20.084C95.9035 19.5413 96.1675 18.8007 96.1675 17.862Z" fill="#109CF1"></path><path d="M111.075 21.096H116.003V24H107.313V8.556H111.075V21.096Z" fill="#109CF1"></path><path d="M123.386 24.176C122.183 24.176 121.098 23.9193 120.13 23.406C119.176 22.8927 118.421 22.1593 117.864 21.206C117.321 20.2527 117.05 19.138 117.05 17.862C117.05 16.6007 117.328 15.4933 117.886 14.54C118.443 13.572 119.206 12.8313 120.174 12.318C121.142 11.8047 122.227 11.548 123.43 11.548C124.632 11.548 125.718 11.8047 126.686 12.318C127.654 12.8313 128.416 13.572 128.974 14.54C129.531 15.4933 129.81 16.6007 129.81 17.862C129.81 19.1233 129.524 20.238 128.952 21.206C128.394 22.1593 127.624 22.8927 126.642 23.406C125.674 23.9193 124.588 24.176 123.386 24.176ZM123.386 20.92C124.104 20.92 124.713 20.656 125.212 20.128C125.725 19.6 125.982 18.8447 125.982 17.862C125.982 16.8793 125.732 16.124 125.234 15.596C124.75 15.068 124.148 14.804 123.43 14.804C122.696 14.804 122.088 15.068 121.604 15.596C121.12 16.1093 120.878 16.8647 120.878 17.862C120.878 18.8447 121.112 19.6 121.582 20.128C122.066 20.656 122.667 20.92 123.386 20.92Z" fill="#109CF1"></path><path d="M136.469 11.548C137.335 11.548 138.09 11.724 138.735 12.076C139.395 12.428 139.901 12.89 140.253 13.462V11.724H144.015V23.978C144.015 25.1073 143.788 26.1267 143.333 27.036C142.893 27.96 142.211 28.6933 141.287 29.236C140.378 29.7787 139.241 30.05 137.877 30.05C136.059 30.05 134.585 29.6173 133.455 28.752C132.326 27.9013 131.681 26.7427 131.519 25.276H135.237C135.355 25.7453 135.633 26.112 136.073 26.376C136.513 26.6547 137.056 26.794 137.701 26.794C138.479 26.794 139.095 26.5667 139.549 26.112C140.019 25.672 140.253 24.9607 140.253 23.978V22.24C139.887 22.812 139.381 23.2813 138.735 23.648C138.09 24 137.335 24.176 136.469 24.176C135.457 24.176 134.541 23.9193 133.719 23.406C132.898 22.878 132.245 22.1373 131.761 21.184C131.292 20.216 131.057 19.1013 131.057 17.84C131.057 16.5787 131.292 15.4713 131.761 14.518C132.245 13.5647 132.898 12.8313 133.719 12.318C134.541 11.8047 135.457 11.548 136.469 11.548ZM140.253 17.862C140.253 16.9233 139.989 16.1827 139.461 15.64C138.948 15.0973 138.317 14.826 137.569 14.826C136.821 14.826 136.183 15.0973 135.655 15.64C135.142 16.168 134.885 16.9013 134.885 17.84C134.885 18.7787 135.142 19.5267 135.655 20.084C136.183 20.6267 136.821 20.898 137.569 20.898C138.317 20.898 138.948 20.6267 139.461 20.084C139.989 19.5413 140.253 18.8007 140.253 17.862Z" fill="#109CF1"></path><path d="M152.325 24.176C151.122 24.176 150.037 23.9193 149.069 23.406C148.116 22.8927 147.36 22.1593 146.803 21.206C146.26 20.2527 145.989 19.138 145.989 17.862C145.989 16.6007 146.268 15.4933 146.825 14.54C147.382 13.572 148.145 12.8313 149.113 12.318C150.081 11.8047 151.166 11.548 152.369 11.548C153.572 11.548 154.657 11.8047 155.625 12.318C156.593 12.8313 157.356 13.572 157.913 14.54C158.47 15.4933 158.749 16.6007 158.749 17.862C158.749 19.1233 158.463 20.238 157.891 21.206C157.334 22.1593 156.564 22.8927 155.581 23.406C154.613 23.9193 153.528 24.176 152.325 24.176ZM152.325 20.92C153.044 20.92 153.652 20.656 154.151 20.128C154.664 19.6 154.921 18.8447 154.921 17.862C154.921 16.8793 154.672 16.124 154.173 15.596C153.689 15.068 153.088 14.804 152.369 14.804C151.636 14.804 151.027 15.068 150.543 15.596C150.059 16.1093 149.817 16.8647 149.817 17.862C149.817 18.8447 150.052 19.6 150.521 20.128C151.005 20.656 151.606 20.92 152.325 20.92Z" fill="#109CF1"></path><path d="M167.587 20.81V24H165.673C164.309 24 163.246 23.67 162.483 23.01C161.72 22.3353 161.339 21.2427 161.339 19.732V14.848H159.843V11.724H161.339V8.732H165.101V11.724H167.565V14.848H165.101V19.776C165.101 20.1427 165.189 20.4067 165.365 20.568C165.541 20.7293 165.834 20.81 166.245 20.81H167.587Z" fill="#109CF1"></path><path d="M182.222 11.724L174.522 29.83H170.474L173.29 23.582L168.296 11.724H172.498L175.336 19.402L178.152 11.724H182.222Z" fill="#109CF1"></path><path d="M187.345 13.462C187.711 12.89 188.217 12.428 188.863 12.076C189.508 11.724 190.263 11.548 191.129 11.548C192.141 11.548 193.057 11.8047 193.879 12.318C194.7 12.8313 195.345 13.5647 195.815 14.518C196.299 15.4713 196.541 16.5787 196.541 17.84C196.541 19.1013 196.299 20.216 195.815 21.184C195.345 22.1373 194.7 22.878 193.879 23.406C193.057 23.9193 192.141 24.176 191.129 24.176C190.278 24.176 189.523 24 188.863 23.648C188.217 23.296 187.711 22.8413 187.345 22.284V29.852H183.583V11.724H187.345V13.462ZM192.713 17.84C192.713 16.9013 192.449 16.168 191.921 15.64C191.407 15.0973 190.769 14.826 190.007 14.826C189.259 14.826 188.621 15.0973 188.093 15.64C187.579 16.1827 187.323 16.9233 187.323 17.862C187.323 18.8007 187.579 19.5413 188.093 20.084C188.621 20.6267 189.259 20.898 190.007 20.898C190.755 20.898 191.393 20.6267 191.921 20.084C192.449 19.5267 192.713 18.7787 192.713 17.84Z" fill="#109CF1"></path><path d="M210.086 17.664C210.086 18.016 210.064 18.3827 210.02 18.764H201.506C201.565 19.5267 201.807 20.1133 202.232 20.524C202.672 20.92 203.208 21.118 203.838 21.118C204.777 21.118 205.43 20.722 205.796 19.93H209.8C209.595 20.7367 209.221 21.4627 208.678 22.108C208.15 22.7533 207.483 23.2593 206.676 23.626C205.87 23.9927 204.968 24.176 203.97 24.176C202.768 24.176 201.697 23.9193 200.758 23.406C199.82 22.8927 199.086 22.1593 198.558 21.206C198.03 20.2527 197.766 19.138 197.766 17.862C197.766 16.586 198.023 15.4713 198.536 14.518C199.064 13.5647 199.798 12.8313 200.736 12.318C201.675 11.8047 202.753 11.548 203.97 11.548C205.158 11.548 206.214 11.7973 207.138 12.296C208.062 12.7947 208.781 13.506 209.294 14.43C209.822 15.354 210.086 16.432 210.086 17.664ZM206.236 16.674C206.236 16.0287 206.016 15.5153 205.576 15.134C205.136 14.7527 204.586 14.562 203.926 14.562C203.296 14.562 202.76 14.7453 202.32 15.112C201.895 15.4787 201.631 15.9993 201.528 16.674H206.236Z" fill="#109CF1"></path><path d="M65.4099 34.286L63.0159 42H61.3359L59.7819 36.302L58.2279 42H56.5479L54.1399 34.286H55.7639L57.3739 40.488L59.0119 34.286H60.6779L62.2459 40.46L63.8419 34.286H65.4099Z" fill="white"></path><path d="M73.6726 37.954C73.6726 38.2433 73.654 38.5047 73.6166 38.738H67.7226C67.7693 39.354 67.998 39.8487 68.4086 40.222C68.8193 40.5953 69.3233 40.782 69.9206 40.782C70.7793 40.782 71.386 40.4227 71.7406 39.704H73.4626C73.2293 40.4133 72.8046 40.9967 72.1886 41.454C71.582 41.902 70.826 42.126 69.9206 42.126C69.1833 42.126 68.5206 41.9627 67.9326 41.636C67.354 41.3 66.8966 40.8333 66.5606 40.236C66.234 39.6293 66.0706 38.9293 66.0706 38.136C66.0706 37.3427 66.2293 36.6473 66.5466 36.05C66.8733 35.4433 67.326 34.9767 67.9046 34.65C68.4926 34.3233 69.1646 34.16 69.9206 34.16C70.6486 34.16 71.2973 34.3187 71.8666 34.636C72.436 34.9533 72.8793 35.4013 73.1966 35.98C73.514 36.5493 73.6726 37.2073 73.6726 37.954ZM72.0066 37.45C71.9973 36.862 71.7873 36.3907 71.3766 36.036C70.966 35.6813 70.4573 35.504 69.8506 35.504C69.3 35.504 68.8286 35.6813 68.4366 36.036C68.0446 36.3813 67.8113 36.8527 67.7366 37.45H72.0066Z" fill="white"></path><path d="M76.8393 35.434C77.1099 35.0607 77.4786 34.7573 77.9453 34.524C78.4213 34.2813 78.9486 34.16 79.5273 34.16C80.2086 34.16 80.8246 34.3233 81.3753 34.65C81.9259 34.9767 82.3599 35.4433 82.6773 36.05C82.9946 36.6473 83.1533 37.3333 83.1533 38.108C83.1533 38.8827 82.9946 39.578 82.6773 40.194C82.3599 40.8007 81.9213 41.2767 81.3613 41.622C80.8106 41.958 80.1993 42.126 79.5273 42.126C78.9299 42.126 78.3979 42.0093 77.9313 41.776C77.4739 41.5427 77.1099 41.244 76.8393 40.88V42H75.2433V31.64H76.8393V35.434ZM81.5293 38.108C81.5293 37.576 81.4173 37.1187 81.1933 36.736C80.9786 36.344 80.6893 36.05 80.3253 35.854C79.9706 35.6487 79.5879 35.546 79.1773 35.546C78.7759 35.546 78.3933 35.6487 78.0293 35.854C77.6746 36.0593 77.3853 36.358 77.1613 36.75C76.9466 37.142 76.8393 37.604 76.8393 38.136C76.8393 38.668 76.9466 39.1347 77.1613 39.536C77.3853 39.928 77.6746 40.2267 78.0293 40.432C78.3933 40.6373 78.7759 40.74 79.1773 40.74C79.5879 40.74 79.9706 40.6373 80.3253 40.432C80.6893 40.2173 80.9786 39.9093 81.1933 39.508C81.4173 39.1067 81.5293 38.64 81.5293 38.108Z" fill="white"></path><path d="M87.5315 42.126C86.9249 42.126 86.3789 42.0187 85.8935 41.804C85.4175 41.58 85.0395 41.2813 84.7595 40.908C84.4795 40.5253 84.3302 40.1007 84.3115 39.634H85.9635C85.9915 39.9607 86.1455 40.236 86.4255 40.46C86.7149 40.6747 87.0742 40.782 87.5035 40.782C87.9515 40.782 88.2969 40.698 88.5395 40.53C88.7915 40.3527 88.9175 40.1287 88.9175 39.858C88.9175 39.5687 88.7775 39.354 88.4975 39.214C88.2269 39.074 87.7929 38.92 87.1955 38.752C86.6169 38.5933 86.1455 38.4393 85.7815 38.29C85.4175 38.1407 85.1002 37.912 84.8295 37.604C84.5682 37.296 84.4375 36.89 84.4375 36.386C84.4375 35.9753 84.5589 35.602 84.8015 35.266C85.0442 34.9207 85.3895 34.65 85.8375 34.454C86.2949 34.258 86.8175 34.16 87.4055 34.16C88.2829 34.16 88.9875 34.384 89.5195 34.832C90.0609 35.2707 90.3502 35.8727 90.3875 36.638H88.7915C88.7635 36.2927 88.6235 36.0173 88.3715 35.812C88.1195 35.6067 87.7789 35.504 87.3495 35.504C86.9295 35.504 86.6075 35.5833 86.3835 35.742C86.1595 35.9007 86.0475 36.1107 86.0475 36.372C86.0475 36.5773 86.1222 36.75 86.2715 36.89C86.4209 37.03 86.6029 37.142 86.8175 37.226C87.0322 37.3007 87.3495 37.3987 87.7695 37.52C88.3295 37.6693 88.7869 37.8233 89.1415 37.982C89.5055 38.1313 89.8182 38.3553 90.0795 38.654C90.3409 38.9527 90.4762 39.3493 90.4855 39.844C90.4855 40.2827 90.3642 40.6747 90.1215 41.02C89.8789 41.3653 89.5335 41.636 89.0855 41.832C88.6469 42.028 88.1289 42.126 87.5315 42.126Z" fill="white"></path><path d="M93.022 33.264C92.7327 33.264 92.49 33.166 92.294 32.97C92.098 32.774 92 32.5313 92 32.242C92 31.9527 92.098 31.71 92.294 31.514C92.49 31.318 92.7327 31.22 93.022 31.22C93.302 31.22 93.54 31.318 93.736 31.514C93.932 31.71 94.03 31.9527 94.03 32.242C94.03 32.5313 93.932 32.774 93.736 32.97C93.54 33.166 93.302 33.264 93.022 33.264ZM93.806 34.286V42H92.21V34.286H93.806Z" fill="white"></path><path d="M97.7635 35.588V39.858C97.7635 40.1473 97.8288 40.3573 97.9595 40.488C98.0995 40.6093 98.3328 40.67 98.6595 40.67H99.6395V42H98.3795C97.6608 42 97.1101 41.832 96.7275 41.496C96.3448 41.16 96.1535 40.614 96.1535 39.858V35.588H95.2435V34.286H96.1535V32.368H97.7635V34.286H99.6395V35.588H97.7635Z" fill="white"></path><path d="M108.18 37.954C108.18 38.2433 108.162 38.5047 108.124 38.738H102.23C102.277 39.354 102.506 39.8487 102.916 40.222C103.327 40.5953 103.831 40.782 104.428 40.782C105.287 40.782 105.894 40.4227 106.248 39.704H107.97C107.737 40.4133 107.312 40.9967 106.696 41.454C106.09 41.902 105.334 42.126 104.428 42.126C103.691 42.126 103.028 41.9627 102.44 41.636C101.862 41.3 101.404 40.8333 101.068 40.236C100.742 39.6293 100.578 38.9293 100.578 38.136C100.578 37.3427 100.737 36.6473 101.054 36.05C101.381 35.4433 101.834 34.9767 102.412 34.65C103 34.3233 103.672 34.16 104.428 34.16C105.156 34.16 105.805 34.3187 106.374 34.636C106.944 34.9533 107.387 35.4013 107.704 35.98C108.022 36.5493 108.18 37.2073 108.18 37.954ZM106.514 37.45C106.505 36.862 106.295 36.3907 105.884 36.036C105.474 35.6813 104.965 35.504 104.358 35.504C103.808 35.504 103.336 35.6813 102.944 36.036C102.552 36.3813 102.319 36.8527 102.244 37.45H106.514Z" fill="white"></path><path d="M116.622 35.588H115.194V42H113.584V35.588H112.674V34.286H113.584V33.74C113.584 32.8533 113.817 32.2093 114.284 31.808C114.76 31.3973 115.502 31.192 116.51 31.192V32.522C116.024 32.522 115.684 32.6153 115.488 32.802C115.292 32.9793 115.194 33.292 115.194 33.74V34.286H116.622V35.588Z" fill="white"></path><path d="M121.382 42.126C120.654 42.126 119.996 41.9627 119.408 41.636C118.82 41.3 118.358 40.8333 118.022 40.236C117.686 39.6293 117.518 38.9293 117.518 38.136C117.518 37.352 117.691 36.6567 118.036 36.05C118.382 35.4433 118.853 34.9767 119.45 34.65C120.048 34.3233 120.715 34.16 121.452 34.16C122.19 34.16 122.857 34.3233 123.454 34.65C124.052 34.9767 124.523 35.4433 124.868 36.05C125.214 36.6567 125.386 37.352 125.386 38.136C125.386 38.92 125.209 39.6153 124.854 40.222C124.5 40.8287 124.014 41.3 123.398 41.636C122.792 41.9627 122.12 42.126 121.382 42.126ZM121.382 40.74C121.793 40.74 122.176 40.642 122.53 40.446C122.894 40.25 123.188 39.956 123.412 39.564C123.636 39.172 123.748 38.696 123.748 38.136C123.748 37.576 123.641 37.1047 123.426 36.722C123.212 36.33 122.927 36.036 122.572 35.84C122.218 35.644 121.835 35.546 121.424 35.546C121.014 35.546 120.631 35.644 120.276 35.84C119.931 36.036 119.656 36.33 119.45 36.722C119.245 37.1047 119.142 37.576 119.142 38.136C119.142 38.9667 119.352 39.6107 119.772 40.068C120.202 40.516 120.738 40.74 121.382 40.74Z" fill="white"></path><path d="M128.56 35.406C128.793 35.014 129.101 34.7107 129.484 34.496C129.876 34.272 130.338 34.16 130.87 34.16V35.812H130.464C129.839 35.812 129.363 35.9707 129.036 36.288C128.719 36.6053 128.56 37.156 128.56 37.94V42H126.964V34.286H128.56V35.406Z" fill="white"></path><path d="M139.32 42.126C138.592 42.126 137.934 41.9627 137.346 41.636C136.758 41.3 136.296 40.8333 135.96 40.236C135.624 39.6293 135.456 38.9293 135.456 38.136C135.456 37.352 135.628 36.6567 135.974 36.05C136.319 35.4433 136.79 34.9767 137.388 34.65C137.985 34.3233 138.652 34.16 139.39 34.16C140.127 34.16 140.794 34.3233 141.392 34.65C141.989 34.9767 142.46 35.4433 142.806 36.05C143.151 36.6567 143.324 37.352 143.324 38.136C143.324 38.92 143.146 39.6153 142.792 40.222C142.437 40.8287 141.952 41.3 141.336 41.636C140.729 41.9627 140.057 42.126 139.32 42.126ZM139.32 40.74C139.73 40.74 140.113 40.642 140.468 40.446C140.832 40.25 141.126 39.956 141.35 39.564C141.574 39.172 141.686 38.696 141.686 38.136C141.686 37.576 141.578 37.1047 141.364 36.722C141.149 36.33 140.864 36.036 140.51 35.84C140.155 35.644 139.772 35.546 139.362 35.546C138.951 35.546 138.568 35.644 138.214 35.84C137.868 36.036 137.593 36.33 137.388 36.722C137.182 37.1047 137.08 37.576 137.08 38.136C137.08 38.9667 137.29 39.6107 137.71 40.068C138.139 40.516 138.676 40.74 139.32 40.74Z" fill="white"></path><path d="M151.887 34.286V42H150.291V41.09C150.039 41.4073 149.708 41.6593 149.297 41.846C148.896 42.0233 148.467 42.112 148.009 42.112C147.403 42.112 146.857 41.986 146.371 41.734C145.895 41.482 145.517 41.1087 145.237 40.614C144.967 40.1193 144.831 39.522 144.831 38.822V34.286H146.413V38.584C146.413 39.2747 146.586 39.8067 146.931 40.18C147.277 40.544 147.748 40.726 148.345 40.726C148.943 40.726 149.414 40.544 149.759 40.18C150.114 39.8067 150.291 39.2747 150.291 38.584V34.286H151.887Z" fill="white"></path><path d="M155.589 35.406C155.823 35.014 156.131 34.7107 156.513 34.496C156.905 34.272 157.367 34.16 157.899 34.16V35.812H157.493C156.868 35.812 156.392 35.9707 156.065 36.288C155.748 36.6053 155.589 37.156 155.589 37.94V42H153.993V34.286H155.589V35.406Z" fill="white"></path><path d="M170.535 43.764L168.827 41.916C168.407 42.0373 167.945 42.098 167.441 42.098C166.536 42.098 165.7 41.888 164.935 41.468C164.179 41.0387 163.577 40.446 163.129 39.69C162.69 38.9247 162.471 38.066 162.471 37.114C162.471 36.162 162.69 35.308 163.129 34.552C163.577 33.796 164.179 33.208 164.935 32.788C165.7 32.3587 166.536 32.144 167.441 32.144C168.356 32.144 169.191 32.3587 169.947 32.788C170.712 33.208 171.314 33.796 171.753 34.552C172.192 35.308 172.411 36.162 172.411 37.114C172.411 38.01 172.215 38.822 171.823 39.55C171.44 40.2687 170.908 40.8473 170.227 41.286L172.565 43.764H170.535ZM164.109 37.114C164.109 37.8327 164.249 38.4673 164.529 39.018C164.818 39.5593 165.215 39.9793 165.719 40.278C166.223 40.5673 166.797 40.712 167.441 40.712C168.085 40.712 168.659 40.5673 169.163 40.278C169.667 39.9793 170.059 39.5593 170.339 39.018C170.628 38.4673 170.773 37.8327 170.773 37.114C170.773 36.3953 170.628 35.7653 170.339 35.224C170.059 34.6827 169.667 34.2673 169.163 33.978C168.659 33.6887 168.085 33.544 167.441 33.544C166.797 33.544 166.223 33.6887 165.719 33.978C165.215 34.2673 164.818 34.6827 164.529 35.224C164.249 35.7653 164.109 36.3953 164.109 37.114Z" fill="white"></path><path d="M179.889 40.012H175.815L175.115 42H173.449L176.935 32.256H178.783L182.269 42H180.589L179.889 40.012ZM179.441 38.71L177.859 34.188L176.263 38.71H179.441Z" fill="white"></path><path d="M33.3334 0C33.3334 0 30.1251 0.0562499 28.1126 2.07083C26.098 4.08333 26.0417 7.29167 26.0417 7.29167C26.0417 7.29167 29.2501 7.23542 31.2626 5.22083C33.2772 3.20833 33.3334 0 33.3334 0Z" fill="#109CF1"></path><path d="M31.6667 16.1323C30.4605 11.8458 28.6813 9.375 25 9.375C21.3188 9.375 19.5396 11.8458 18.3334 16.1323C17.2073 20.1323 13.0428 22.9292 10.4563 27.0833H39.5428C36.9573 22.9292 32.7928 20.1333 31.6667 16.1323Z" fill="#109CF1"></path><path d="M19.9999 45.8333C21.7968 45.8333 23.0603 45.2667 24.9999 45.2667C26.9395 45.2667 28.203 45.8333 29.9999 45.8333C36.4437 45.8333 41.6666 40.6625 41.6666 34.2833C41.6666 31.3781 40.7843 29.0761 39.5437 27.0833H10.4562C9.21554 29.0771 8.33325 31.3792 8.33325 34.2833C8.33325 40.6625 13.5562 45.8333 19.9999 45.8333Z" fill="#0C86CF"></path></svg> 