<?xml version="1.0" encoding="UTF-8"?> <svg xmlns="http://www.w3.org/2000/svg" width="211" height="50" viewBox="0 0 211 50" fill="none"><path d="M59.126 8.55591V23.9999H55.364V8.55591H59.126Z" fill="#109CF1"></path><path d="M68.6943 20.8099V23.9999H66.7803C65.4163 23.9999 64.353 23.6699 63.5903 23.0099C62.8276 22.3352 62.4463 21.2426 62.4463 19.7319V14.8479H60.9503V11.7239H62.4463V8.73191H66.2083V11.7239H68.6723V14.8479H66.2083V19.7759C66.2083 20.1426 66.2963 20.4066 66.4723 20.5679C66.6483 20.7292 66.9416 20.8099 67.3523 20.8099H68.6943Z" fill="#109CF1"></path><path d="M75.7838 24.1759C74.7131 24.1759 73.7598 23.9926 72.9238 23.6259C72.0878 23.2592 71.4278 22.7606 70.9438 22.1299C70.4598 21.4846 70.1885 20.7659 70.1298 19.9739H73.8478C73.8918 20.3992 74.0898 20.7439 74.4418 21.0079C74.7938 21.2719 75.2265 21.4039 75.7398 21.4039C76.2091 21.4039 76.5685 21.3159 76.8178 21.1399C77.0818 20.9492 77.2138 20.7072 77.2138 20.4139C77.2138 20.0619 77.0305 19.8052 76.6638 19.6439C76.2971 19.4679 75.7031 19.2772 74.8818 19.0719C74.0018 18.8666 73.2685 18.6539 72.6818 18.4339C72.0951 18.1992 71.5891 17.8399 71.1638 17.3559C70.7385 16.8572 70.5258 16.1899 70.5258 15.3539C70.5258 14.6499 70.7165 14.0119 71.0978 13.4399C71.4938 12.8532 72.0658 12.3912 72.8138 12.0539C73.5765 11.7166 74.4785 11.5479 75.5198 11.5479C77.0598 11.5479 78.2698 11.9292 79.1498 12.6919C80.0445 13.4546 80.5578 14.4666 80.6898 15.7279H77.2138C77.1551 15.3026 76.9645 14.9652 76.6418 14.7159C76.3338 14.4666 75.9231 14.3419 75.4098 14.3419C74.9698 14.3419 74.6325 14.4299 74.3978 14.6059C74.1631 14.7672 74.0458 14.9946 74.0458 15.2879C74.0458 15.6399 74.2291 15.9039 74.5958 16.0799C74.9771 16.2559 75.5638 16.4319 76.3558 16.6079C77.2651 16.8426 78.0058 17.0772 78.5778 17.3119C79.1498 17.5319 79.6485 17.8986 80.0738 18.4119C80.5138 18.9106 80.7411 19.5852 80.7558 20.4359C80.7558 21.1546 80.5505 21.7999 80.1398 22.3719C79.7438 22.9292 79.1645 23.3692 78.4018 23.6919C77.6538 24.0146 76.7811 24.1759 75.7838 24.1759Z" fill="#109CF1"></path><path d="M86.9715 17.8399C86.9715 16.5786 87.2062 15.4712 87.6755 14.5179C88.1595 13.5646 88.8122 12.8312 89.6335 12.3179C90.4548 11.8046 91.3715 11.5479 92.3835 11.5479C93.2488 11.5479 94.0041 11.7239 94.6495 12.0759C95.3095 12.4279 95.8155 12.8899 96.1675 13.4619V11.7239H99.9295V23.9999H96.1675V22.2619C95.8008 22.8339 95.2875 23.2959 94.6275 23.6479C93.9822 23.9999 93.2268 24.1759 92.3615 24.1759C91.3642 24.1759 90.4548 23.9192 89.6335 23.4059C88.8122 22.8779 88.1595 22.1372 87.6755 21.1839C87.2062 20.2159 86.9715 19.1012 86.9715 17.8399ZM96.1675 17.8619C96.1675 16.9232 95.9035 16.1826 95.3755 15.6399C94.8622 15.0972 94.2315 14.8259 93.4835 14.8259C92.7355 14.8259 92.0975 15.0972 91.5695 15.6399C91.0562 16.1679 90.7995 16.9012 90.7995 17.8399C90.7995 18.7786 91.0562 19.5266 91.5695 20.0839C92.0975 20.6266 92.7355 20.8979 93.4835 20.8979C94.2315 20.8979 94.8622 20.6266 95.3755 20.0839C95.9035 19.5412 96.1675 18.8006 96.1675 17.8619Z" fill="#109CF1"></path><path d="M111.075 21.0959H116.003V23.9999H107.313V8.55591H111.075V21.0959Z" fill="#109CF1"></path><path d="M123.386 24.1759C122.183 24.1759 121.098 23.9192 120.13 23.4059C119.176 22.8926 118.421 22.1592 117.864 21.2059C117.321 20.2526 117.05 19.1379 117.05 17.8619C117.05 16.6006 117.328 15.4932 117.886 14.5399C118.443 13.5719 119.206 12.8312 120.174 12.3179C121.142 11.8046 122.227 11.5479 123.43 11.5479C124.632 11.5479 125.718 11.8046 126.686 12.3179C127.654 12.8312 128.416 13.5719 128.974 14.5399C129.531 15.4932 129.81 16.6006 129.81 17.8619C129.81 19.1232 129.524 20.2379 128.952 21.2059C128.394 22.1592 127.624 22.8926 126.642 23.4059C125.674 23.9192 124.588 24.1759 123.386 24.1759ZM123.386 20.9199C124.104 20.9199 124.713 20.6559 125.212 20.1279C125.725 19.5999 125.982 18.8446 125.982 17.8619C125.982 16.8792 125.732 16.1239 125.234 15.5959C124.75 15.0679 124.148 14.8039 123.43 14.8039C122.696 14.8039 122.088 15.0679 121.604 15.5959C121.12 16.1092 120.878 16.8646 120.878 17.8619C120.878 18.8446 121.112 19.5999 121.582 20.1279C122.066 20.6559 122.667 20.9199 123.386 20.9199Z" fill="#109CF1"></path><path d="M136.469 11.5479C137.335 11.5479 138.09 11.7239 138.735 12.0759C139.395 12.4279 139.901 12.8899 140.253 13.4619V11.7239H144.015V23.9779C144.015 25.1072 143.788 26.1266 143.333 27.0359C142.893 27.9599 142.211 28.6932 141.287 29.2359C140.378 29.7786 139.241 30.0499 137.877 30.0499C136.059 30.0499 134.585 29.6172 133.455 28.7519C132.326 27.9012 131.681 26.7426 131.519 25.2759H135.237C135.355 25.7452 135.633 26.1119 136.073 26.3759C136.513 26.6546 137.056 26.7939 137.701 26.7939C138.479 26.7939 139.095 26.5666 139.549 26.1119C140.019 25.6719 140.253 24.9606 140.253 23.9779V22.2399C139.887 22.8119 139.381 23.2812 138.735 23.6479C138.09 23.9999 137.335 24.1759 136.469 24.1759C135.457 24.1759 134.541 23.9192 133.719 23.4059C132.898 22.8779 132.245 22.1372 131.761 21.1839C131.292 20.2159 131.057 19.1012 131.057 17.8399C131.057 16.5786 131.292 15.4712 131.761 14.5179C132.245 13.5646 132.898 12.8312 133.719 12.3179C134.541 11.8046 135.457 11.5479 136.469 11.5479ZM140.253 17.8619C140.253 16.9232 139.989 16.1826 139.461 15.6399C138.948 15.0972 138.317 14.8259 137.569 14.8259C136.821 14.8259 136.183 15.0972 135.655 15.6399C135.142 16.1679 134.885 16.9012 134.885 17.8399C134.885 18.7786 135.142 19.5266 135.655 20.0839C136.183 20.6266 136.821 20.8979 137.569 20.8979C138.317 20.8979 138.948 20.6266 139.461 20.0839C139.989 19.5412 140.253 18.8006 140.253 17.8619Z" fill="#109CF1"></path><path d="M152.325 24.1759C151.122 24.1759 150.037 23.9192 149.069 23.4059C148.116 22.8926 147.36 22.1592 146.803 21.2059C146.26 20.2526 145.989 19.1379 145.989 17.8619C145.989 16.6006 146.268 15.4932 146.825 14.5399C147.382 13.5719 148.145 12.8312 149.113 12.3179C150.081 11.8046 151.166 11.5479 152.369 11.5479C153.572 11.5479 154.657 11.8046 155.625 12.3179C156.593 12.8312 157.356 13.5719 157.913 14.5399C158.47 15.4932 158.749 16.6006 158.749 17.8619C158.749 19.1232 158.463 20.2379 157.891 21.2059C157.334 22.1592 156.564 22.8926 155.581 23.4059C154.613 23.9192 153.528 24.1759 152.325 24.1759ZM152.325 20.9199C153.044 20.9199 153.652 20.6559 154.151 20.1279C154.664 19.5999 154.921 18.8446 154.921 17.8619C154.921 16.8792 154.672 16.1239 154.173 15.5959C153.689 15.0679 153.088 14.8039 152.369 14.8039C151.636 14.8039 151.027 15.0679 150.543 15.5959C150.059 16.1092 149.817 16.8646 149.817 17.8619C149.817 18.8446 150.052 19.5999 150.521 20.1279C151.005 20.6559 151.606 20.9199 152.325 20.9199Z" fill="#109CF1"></path><path d="M167.587 20.8099V23.9999H165.673C164.309 23.9999 163.246 23.6699 162.483 23.0099C161.72 22.3352 161.339 21.2426 161.339 19.7319V14.8479H159.843V11.7239H161.339V8.73191H165.101V11.7239H167.565V14.8479H165.101V19.7759C165.101 20.1426 165.189 20.4066 165.365 20.5679C165.541 20.7292 165.834 20.8099 166.245 20.8099H167.587Z" fill="#109CF1"></path><path d="M182.222 11.7239L174.522 29.8299H170.474L173.29 23.5819L168.296 11.7239H172.498L175.336 19.4019L178.152 11.7239H182.222Z" fill="#109CF1"></path><path d="M187.345 13.4619C187.711 12.8899 188.217 12.4279 188.863 12.0759C189.508 11.7239 190.263 11.5479 191.129 11.5479C192.141 11.5479 193.057 11.8046 193.879 12.3179C194.7 12.8312 195.345 13.5646 195.815 14.5179C196.299 15.4712 196.541 16.5786 196.541 17.8399C196.541 19.1012 196.299 20.2159 195.815 21.1839C195.345 22.1372 194.7 22.8779 193.879 23.4059C193.057 23.9192 192.141 24.1759 191.129 24.1759C190.278 24.1759 189.523 23.9999 188.863 23.6479C188.217 23.2959 187.711 22.8412 187.345 22.2839V29.8519H183.583V11.7239H187.345V13.4619ZM192.713 17.8399C192.713 16.9012 192.449 16.1679 191.921 15.6399C191.407 15.0972 190.769 14.8259 190.007 14.8259C189.259 14.8259 188.621 15.0972 188.093 15.6399C187.579 16.1826 187.323 16.9232 187.323 17.8619C187.323 18.8006 187.579 19.5412 188.093 20.0839C188.621 20.6266 189.259 20.8979 190.007 20.8979C190.755 20.8979 191.393 20.6266 191.921 20.0839C192.449 19.5266 192.713 18.7786 192.713 17.8399Z" fill="#109CF1"></path><path d="M210.086 17.6639C210.086 18.0159 210.064 18.3826 210.02 18.7639H201.506C201.565 19.5266 201.807 20.1132 202.232 20.5239C202.672 20.9199 203.208 21.1179 203.838 21.1179C204.777 21.1179 205.43 20.7219 205.796 19.9299H209.8C209.595 20.7366 209.221 21.4626 208.678 22.1079C208.15 22.7532 207.483 23.2592 206.676 23.6259C205.87 23.9926 204.968 24.1759 203.97 24.1759C202.768 24.1759 201.697 23.9192 200.758 23.4059C199.82 22.8926 199.086 22.1592 198.558 21.2059C198.03 20.2526 197.766 19.1379 197.766 17.8619C197.766 16.5859 198.023 15.4712 198.536 14.5179C199.064 13.5646 199.798 12.8312 200.736 12.3179C201.675 11.8046 202.753 11.5479 203.97 11.5479C205.158 11.5479 206.214 11.7972 207.138 12.2959C208.062 12.7946 208.781 13.5059 209.294 14.4299C209.822 15.3539 210.086 16.4319 210.086 17.6639ZM206.236 16.6739C206.236 16.0286 206.016 15.5152 205.576 15.1339C205.136 14.7526 204.586 14.5619 203.926 14.5619C203.296 14.5619 202.76 14.7452 202.32 15.1119C201.895 15.4786 201.631 15.9992 201.528 16.6739H206.236Z" fill="#109CF1"></path><path d="M65.4099 34.2859L63.0159 41.9999H61.3359L59.7819 36.3019L58.2279 41.9999H56.5479L54.1399 34.2859H55.7639L57.3739 40.4879L59.0119 34.2859H60.6779L62.2459 40.4599L63.8419 34.2859H65.4099Z" fill="#10242B"></path><path d="M73.6726 37.9539C73.6726 38.2432 73.654 38.5046 73.6166 38.7379H67.7226C67.7693 39.3539 67.998 39.8486 68.4086 40.2219C68.8193 40.5952 69.3233 40.7819 69.9206 40.7819C70.7793 40.7819 71.386 40.4226 71.7406 39.7039H73.4626C73.2293 40.4132 72.8046 40.9966 72.1886 41.4539C71.582 41.9019 70.826 42.1259 69.9206 42.1259C69.1833 42.1259 68.5206 41.9626 67.9326 41.6359C67.354 41.2999 66.8966 40.8332 66.5606 40.2359C66.234 39.6292 66.0706 38.9292 66.0706 38.1359C66.0706 37.3426 66.2293 36.6472 66.5466 36.0499C66.8733 35.4432 67.326 34.9766 67.9046 34.6499C68.4926 34.3232 69.1646 34.1599 69.9206 34.1599C70.6486 34.1599 71.2973 34.3186 71.8666 34.6359C72.436 34.9532 72.8793 35.4012 73.1966 35.9799C73.514 36.5492 73.6726 37.2072 73.6726 37.9539ZM72.0066 37.4499C71.9973 36.8619 71.7873 36.3906 71.3766 36.0359C70.966 35.6812 70.4573 35.5039 69.8506 35.5039C69.3 35.5039 68.8286 35.6812 68.4366 36.0359C68.0446 36.3812 67.8113 36.8526 67.7366 37.4499H72.0066Z" fill="#10242B"></path><path d="M76.8393 35.4339C77.1099 35.0606 77.4786 34.7572 77.9453 34.5239C78.4213 34.2812 78.9486 34.1599 79.5273 34.1599C80.2086 34.1599 80.8246 34.3232 81.3753 34.6499C81.9259 34.9766 82.3599 35.4432 82.6773 36.0499C82.9946 36.6472 83.1533 37.3332 83.1533 38.1079C83.1533 38.8826 82.9946 39.5779 82.6773 40.1939C82.3599 40.8006 81.9213 41.2766 81.3613 41.6219C80.8106 41.9579 80.1993 42.1259 79.5273 42.1259C78.9299 42.1259 78.3979 42.0092 77.9313 41.7759C77.4739 41.5426 77.1099 41.2439 76.8393 40.8799V41.9999H75.2433V31.6399H76.8393V35.4339ZM81.5293 38.1079C81.5293 37.5759 81.4173 37.1186 81.1933 36.7359C80.9786 36.3439 80.6893 36.0499 80.3253 35.8539C79.9706 35.6486 79.5879 35.5459 79.1773 35.5459C78.7759 35.5459 78.3933 35.6486 78.0293 35.8539C77.6746 36.0592 77.3853 36.3579 77.1613 36.7499C76.9466 37.1419 76.8393 37.6039 76.8393 38.1359C76.8393 38.6679 76.9466 39.1346 77.1613 39.5359C77.3853 39.9279 77.6746 40.2266 78.0293 40.4319C78.3933 40.6372 78.7759 40.7399 79.1773 40.7399C79.5879 40.7399 79.9706 40.6372 80.3253 40.4319C80.6893 40.2172 80.9786 39.9092 81.1933 39.5079C81.4173 39.1066 81.5293 38.6399 81.5293 38.1079Z" fill="#10242B"></path><path d="M87.5315 42.1259C86.9249 42.1259 86.3789 42.0186 85.8935 41.8039C85.4175 41.5799 85.0395 41.2812 84.7595 40.9079C84.4795 40.5252 84.3302 40.1006 84.3115 39.6339H85.9635C85.9915 39.9606 86.1455 40.2359 86.4255 40.4599C86.7149 40.6746 87.0742 40.7819 87.5035 40.7819C87.9515 40.7819 88.2969 40.6979 88.5395 40.5299C88.7915 40.3526 88.9175 40.1286 88.9175 39.8579C88.9175 39.5686 88.7775 39.3539 88.4975 39.2139C88.2269 39.0739 87.7929 38.9199 87.1955 38.7519C86.6169 38.5932 86.1455 38.4392 85.7815 38.2899C85.4175 38.1406 85.1002 37.9119 84.8295 37.6039C84.5682 37.2959 84.4375 36.8899 84.4375 36.3859C84.4375 35.9752 84.5589 35.6019 84.8015 35.2659C85.0442 34.9206 85.3895 34.6499 85.8375 34.4539C86.2949 34.2579 86.8175 34.1599 87.4055 34.1599C88.2829 34.1599 88.9875 34.3839 89.5195 34.8319C90.0609 35.2706 90.3502 35.8726 90.3875 36.6379H88.7915C88.7635 36.2926 88.6235 36.0172 88.3715 35.8119C88.1195 35.6066 87.7789 35.5039 87.3495 35.5039C86.9295 35.5039 86.6075 35.5832 86.3835 35.7419C86.1595 35.9006 86.0475 36.1106 86.0475 36.3719C86.0475 36.5772 86.1222 36.7499 86.2715 36.8899C86.4209 37.0299 86.6029 37.1419 86.8175 37.2259C87.0322 37.3006 87.3495 37.3986 87.7695 37.5199C88.3295 37.6692 88.7869 37.8232 89.1415 37.9819C89.5055 38.1312 89.8182 38.3552 90.0795 38.6539C90.3409 38.9526 90.4762 39.3492 90.4855 39.8439C90.4855 40.2826 90.3642 40.6746 90.1215 41.0199C89.8789 41.3652 89.5335 41.6359 89.0855 41.8319C88.6469 42.0279 88.1289 42.1259 87.5315 42.1259Z" fill="#10242B"></path><path d="M93.022 33.2639C92.7327 33.2639 92.49 33.1659 92.294 32.9699C92.098 32.7739 92 32.5312 92 32.2419C92 31.9526 92.098 31.7099 92.294 31.5139C92.49 31.3179 92.7327 31.2199 93.022 31.2199C93.302 31.2199 93.54 31.3179 93.736 31.5139C93.932 31.7099 94.03 31.9526 94.03 32.2419C94.03 32.5312 93.932 32.7739 93.736 32.9699C93.54 33.1659 93.302 33.2639 93.022 33.2639ZM93.806 34.2859V41.9999H92.21V34.2859H93.806Z" fill="#10242B"></path><path d="M97.7635 35.5879V39.8579C97.7635 40.1472 97.8288 40.3572 97.9595 40.4879C98.0995 40.6092 98.3328 40.6699 98.6595 40.6699H99.6395V41.9999H98.3795C97.6608 41.9999 97.1101 41.8319 96.7275 41.4959C96.3448 41.1599 96.1535 40.6139 96.1535 39.8579V35.5879H95.2435V34.2859H96.1535V32.3679H97.7635V34.2859H99.6395V35.5879H97.7635Z" fill="#10242B"></path><path d="M108.18 37.9539C108.18 38.2432 108.162 38.5046 108.124 38.7379H102.23C102.277 39.3539 102.506 39.8486 102.916 40.2219C103.327 40.5952 103.831 40.7819 104.428 40.7819C105.287 40.7819 105.894 40.4226 106.248 39.7039H107.97C107.737 40.4132 107.312 40.9966 106.696 41.4539C106.09 41.9019 105.334 42.1259 104.428 42.1259C103.691 42.1259 103.028 41.9626 102.44 41.6359C101.862 41.2999 101.404 40.8332 101.068 40.2359C100.742 39.6292 100.578 38.9292 100.578 38.1359C100.578 37.3426 100.737 36.6472 101.054 36.0499C101.381 35.4432 101.834 34.9766 102.412 34.6499C103 34.3232 103.672 34.1599 104.428 34.1599C105.156 34.1599 105.805 34.3186 106.374 34.6359C106.944 34.9532 107.387 35.4012 107.704 35.9799C108.022 36.5492 108.18 37.2072 108.18 37.9539ZM106.514 37.4499C106.505 36.8619 106.295 36.3906 105.884 36.0359C105.474 35.6812 104.965 35.5039 104.358 35.5039C103.808 35.5039 103.336 35.6812 102.944 36.0359C102.552 36.3812 102.319 36.8526 102.244 37.4499H106.514Z" fill="#10242B"></path><path d="M116.622 35.5879H115.194V41.9999H113.584V35.5879H112.674V34.2859H113.584V33.7399C113.584 32.8532 113.817 32.2092 114.284 31.8079C114.76 31.3972 115.502 31.1919 116.51 31.1919V32.5219C116.024 32.5219 115.684 32.6152 115.488 32.8019C115.292 32.9792 115.194 33.2919 115.194 33.7399V34.2859H116.622V35.5879Z" fill="#10242B"></path><path d="M121.382 42.1259C120.654 42.1259 119.996 41.9626 119.408 41.6359C118.82 41.2999 118.358 40.8332 118.022 40.2359C117.686 39.6292 117.518 38.9292 117.518 38.1359C117.518 37.3519 117.691 36.6566 118.036 36.0499C118.382 35.4432 118.853 34.9766 119.45 34.6499C120.048 34.3232 120.715 34.1599 121.452 34.1599C122.19 34.1599 122.857 34.3232 123.454 34.6499C124.052 34.9766 124.523 35.4432 124.868 36.0499C125.214 36.6566 125.386 37.3519 125.386 38.1359C125.386 38.9199 125.209 39.6152 124.854 40.2219C124.5 40.8286 124.014 41.2999 123.398 41.6359C122.792 41.9626 122.12 42.1259 121.382 42.1259ZM121.382 40.7399C121.793 40.7399 122.176 40.6419 122.53 40.4459C122.894 40.2499 123.188 39.9559 123.412 39.5639C123.636 39.1719 123.748 38.6959 123.748 38.1359C123.748 37.5759 123.641 37.1046 123.426 36.7219C123.212 36.3299 122.927 36.0359 122.572 35.8399C122.218 35.6439 121.835 35.5459 121.424 35.5459C121.014 35.5459 120.631 35.6439 120.276 35.8399C119.931 36.0359 119.656 36.3299 119.45 36.7219C119.245 37.1046 119.142 37.5759 119.142 38.1359C119.142 38.9666 119.352 39.6106 119.772 40.0679C120.202 40.5159 120.738 40.7399 121.382 40.7399Z" fill="#10242B"></path><path d="M128.56 35.4059C128.793 35.0139 129.101 34.7106 129.484 34.4959C129.876 34.2719 130.338 34.1599 130.87 34.1599V35.8119H130.464C129.839 35.8119 129.363 35.9706 129.036 36.2879C128.719 36.6052 128.56 37.1559 128.56 37.9399V41.9999H126.964V34.2859H128.56V35.4059Z" fill="#10242B"></path><path d="M139.32 42.1259C138.592 42.1259 137.934 41.9626 137.346 41.6359C136.758 41.2999 136.296 40.8332 135.96 40.2359C135.624 39.6292 135.456 38.9292 135.456 38.1359C135.456 37.3519 135.628 36.6566 135.974 36.0499C136.319 35.4432 136.79 34.9766 137.388 34.6499C137.985 34.3232 138.652 34.1599 139.39 34.1599C140.127 34.1599 140.794 34.3232 141.392 34.6499C141.989 34.9766 142.46 35.4432 142.806 36.0499C143.151 36.6566 143.324 37.3519 143.324 38.1359C143.324 38.9199 143.146 39.6152 142.792 40.2219C142.437 40.8286 141.952 41.2999 141.336 41.6359C140.729 41.9626 140.057 42.1259 139.32 42.1259ZM139.32 40.7399C139.73 40.7399 140.113 40.6419 140.468 40.4459C140.832 40.2499 141.126 39.9559 141.35 39.5639C141.574 39.1719 141.686 38.6959 141.686 38.1359C141.686 37.5759 141.578 37.1046 141.364 36.7219C141.149 36.3299 140.864 36.0359 140.51 35.8399C140.155 35.6439 139.772 35.5459 139.362 35.5459C138.951 35.5459 138.568 35.6439 138.214 35.8399C137.868 36.0359 137.593 36.3299 137.388 36.7219C137.182 37.1046 137.08 37.5759 137.08 38.1359C137.08 38.9666 137.29 39.6106 137.71 40.0679C138.139 40.5159 138.676 40.7399 139.32 40.7399Z" fill="#10242B"></path><path d="M151.887 34.2859V41.9999H150.291V41.0899C150.039 41.4072 149.708 41.6592 149.297 41.8459C148.896 42.0232 148.467 42.1119 148.009 42.1119C147.403 42.1119 146.857 41.9859 146.371 41.7339C145.895 41.4819 145.517 41.1086 145.237 40.6139C144.967 40.1192 144.831 39.5219 144.831 38.8219V34.2859H146.413V38.5839C146.413 39.2746 146.586 39.8066 146.931 40.1799C147.277 40.5439 147.748 40.7259 148.345 40.7259C148.943 40.7259 149.414 40.5439 149.759 40.1799C150.114 39.8066 150.291 39.2746 150.291 38.5839V34.2859H151.887Z" fill="#10242B"></path><path d="M155.589 35.4059C155.823 35.0139 156.131 34.7106 156.513 34.4959C156.905 34.2719 157.367 34.1599 157.899 34.1599V35.8119H157.493C156.868 35.8119 156.392 35.9706 156.065 36.2879C155.748 36.6052 155.589 37.1559 155.589 37.9399V41.9999H153.993V34.2859H155.589V35.4059Z" fill="#10242B"></path><path d="M170.535 43.7639L168.827 41.9159C168.407 42.0372 167.945 42.0979 167.441 42.0979C166.536 42.0979 165.7 41.8879 164.935 41.4679C164.179 41.0386 163.577 40.4459 163.129 39.6899C162.69 38.9246 162.471 38.0659 162.471 37.1139C162.471 36.1619 162.69 35.3079 163.129 34.5519C163.577 33.7959 164.179 33.2079 164.935 32.7879C165.7 32.3586 166.536 32.1439 167.441 32.1439C168.356 32.1439 169.191 32.3586 169.947 32.7879C170.712 33.2079 171.314 33.7959 171.753 34.5519C172.192 35.3079 172.411 36.1619 172.411 37.1139C172.411 38.0099 172.215 38.8219 171.823 39.5499C171.44 40.2686 170.908 40.8472 170.227 41.2859L172.565 43.7639H170.535ZM164.109 37.1139C164.109 37.8326 164.249 38.4672 164.529 39.0179C164.818 39.5592 165.215 39.9792 165.719 40.2779C166.223 40.5672 166.797 40.7119 167.441 40.7119C168.085 40.7119 168.659 40.5672 169.163 40.2779C169.667 39.9792 170.059 39.5592 170.339 39.0179C170.628 38.4672 170.773 37.8326 170.773 37.1139C170.773 36.3952 170.628 35.7652 170.339 35.2239C170.059 34.6826 169.667 34.2672 169.163 33.9779C168.659 33.6886 168.085 33.5439 167.441 33.5439C166.797 33.5439 166.223 33.6886 165.719 33.9779C165.215 34.2672 164.818 34.6826 164.529 35.2239C164.249 35.7652 164.109 36.3952 164.109 37.1139Z" fill="#10242B"></path><path d="M179.889 40.0119H175.815L175.115 41.9999H173.449L176.935 32.2559H178.783L182.269 41.9999H180.589L179.889 40.0119ZM179.441 38.7099L177.859 34.1879L176.263 38.7099H179.441Z" fill="#10242B"></path><path d="M33.3334 0C33.3334 0 30.1251 0.0562499 28.1126 2.07083C26.098 4.08333 26.0417 7.29167 26.0417 7.29167C26.0417 7.29167 29.2501 7.23542 31.2626 5.22083C33.2772 3.20833 33.3334 0 33.3334 0Z" fill="#109CF1"></path><path d="M31.6667 16.1323C30.4605 11.8458 28.6813 9.375 25 9.375C21.3188 9.375 19.5396 11.8458 18.3334 16.1323C17.2073 20.1323 13.0428 22.9292 10.4563 27.0833H39.5428C36.9573 22.9292 32.7928 20.1333 31.6667 16.1323Z" fill="#109CF1"></path><path d="M19.9999 45.8333C21.7968 45.8333 23.0603 45.2666 24.9999 45.2666C26.9395 45.2666 28.203 45.8333 29.9999 45.8333C36.4437 45.8333 41.6666 40.6624 41.6666 34.2833C41.6666 31.378 40.7843 29.076 39.5437 27.0833H10.4562C9.21554 29.077 8.33325 31.3791 8.33325 34.2833C8.33325 40.6624 13.5562 45.8333 19.9999 45.8333Z" fill="#0C86CF"></path></svg> 